<svg width="50" height="50" viewBox="0 0 50 50" fill="none" xmlns="http://www.w3.org/2000/svg">
<path d="M7.60509 7.29163C10.3517 4.54299 13.7134 2.48782 17.4119 1.29612C21.1104 0.104428 25.0395 -0.189537 28.8741 0.438545C33.8218 1.26698 38.3988 3.58545 41.9938 7.08422C45.5888 10.583 48.0305 15.0955 48.9929 20.0188C49.9458 25.0803 49.2777 30.3134 47.0838 34.9732L48.6257 42.4627C48.7886 43.2586 48.7508 44.0825 48.5158 44.8601C48.2808 45.6378 47.856 46.3447 47.2796 46.9172C46.7047 47.4893 45.9967 47.9095 45.2191 48.1402C44.4416 48.3709 43.6189 48.4048 42.8251 48.2388L35.3356 46.7214C32.0831 48.2596 28.5315 49.0619 24.9336 49.071C23.4226 49.0771 21.9145 48.9378 20.4302 48.6549C16.0489 47.8381 11.9739 45.8406 8.64466 42.8778C5.31542 39.9149 2.85834 36.0993 1.53848 31.8426C0.21863 27.5858 0.0861091 23.0494 1.15522 18.7228C2.22432 14.3963 4.45448 10.4437 7.60509 7.29163Z" fill="#831529"/>
<path d="M22.486 34.3858V24.5957C22.486 23.9466 22.7438 23.324 23.2028 22.865C23.6618 22.406 24.2844 22.1482 24.9335 22.1482C25.5826 22.1482 26.2052 22.406 26.6642 22.865C27.1232 23.324 27.381 23.9466 27.381 24.5957V34.3858C27.381 35.035 27.1232 35.6575 26.6642 36.1165C26.2052 36.5755 25.5826 36.8334 24.9335 36.8334C24.2844 36.8334 23.6618 36.5755 23.2028 36.1165C22.7438 35.6575 22.486 35.035 22.486 34.3858ZM21.2622 14.8056C21.2622 15.5317 21.4775 16.2415 21.8809 16.8452C22.2843 17.449 22.8577 17.9195 23.5286 18.1974C24.1994 18.4753 24.9376 18.548 25.6497 18.4063C26.3619 18.2647 27.0161 17.915 27.5295 17.4016C28.0429 16.8881 28.3926 16.234 28.5343 15.5218C28.6759 14.8096 28.6032 14.0715 28.3253 13.4006C28.0475 12.7298 27.5769 12.1564 26.9732 11.753C26.3694 11.3496 25.6596 11.1343 24.9335 11.1343C23.9598 11.1343 23.026 11.5211 22.3375 12.2096C21.649 12.8981 21.2622 13.8319 21.2622 14.8056Z" fill="#F6921E"/>
</svg>
