<svg width="67" height="51" viewBox="0 0 67 51" fill="none" xmlns="http://www.w3.org/2000/svg">
<path d="M36.9233 9.26252C36.7949 9.3822 36.6263 9.45631 36.4018 9.45741C34.4326 9.47168 32.4634 9.48541 30.4937 9.49968C29.9722 9.50352 29.4468 9.61771 28.9247 9.55952C28.3593 9.49639 28.1562 9.12473 28.0601 8.59826C27.7285 6.7817 26.9934 4.89541 27.4661 3.03548C28.1183 0.469011 30.901 0.00512695 33.2666 0.00512695C35.3653 0.00512695 37.0331 0.813221 37.71 2.64351C38.2897 4.21084 37.8121 6.11085 37.4498 7.67927C37.3361 8.17171 37.2983 8.91337 36.9233 9.26252Z" fill="#F6921E"/>
<path d="M61.3318 37.3098C61.3318 39.1022 61.1649 40.8573 60.8443 42.5553C60.3223 45.354 59.3885 48.005 58.1055 50.4457C56.4893 50.4364 54.8726 50.4457 53.2564 50.4457C38.1425 50.4457 23.0319 50.4424 7.91804 50.4584C6.63179 48.0149 5.69468 45.3606 5.1726 42.5619C4.852 40.8606 4.68512 39.1055 4.68512 37.3104C4.68512 21.6684 17.3648 8.98535 33.0101 8.98535C48.6521 8.9848 61.3318 21.6678 61.3318 37.3098Z" fill="#831529"/>
<path d="M52.1667 28.8055C57.6963 28.8055 62.1789 24.3229 62.1789 18.7932C62.1789 13.2636 57.6963 8.78101 52.1667 8.78101C46.6371 8.78101 42.1544 13.2636 42.1544 18.7932C42.1544 24.3229 46.6371 28.8055 52.1667 28.8055Z" fill="#F6921E"/>
<path d="M53.6116 12.8137H50.7213V24.7732H53.6116V12.8137Z" fill="white"/>
<path d="M46.187 17.3482V20.2385H58.1465V17.3482H46.187Z" fill="white"/>
<path d="M66.1496 45.7536C66.1496 46.7725 65.7626 47.3544 65.0648 47.832C63.8982 48.6308 62.6872 49.373 61.4734 50.1059C61.0392 50.3699 60.5522 50.4704 60.0109 50.4611C59.3758 50.4517 58.7406 50.4451 58.1054 50.4451C56.4893 50.4358 54.8725 50.4451 53.2563 50.4451C38.1424 50.4451 23.0319 50.4418 7.91797 50.4578H7.07529C6.05968 50.4578 5.20438 50.2782 4.37103 49.6118C3.51573 48.9228 2.46828 48.4825 1.52788 47.8946C0.983844 47.552 0.634693 47.0865 0.685199 46.3503C0.751076 45.4099 0.681906 44.4635 0.713747 43.5231C0.739 42.8028 0.933889 42.6046 1.64756 42.5827C2.79876 42.5514 3.94941 42.5668 5.10062 42.5607H5.17309C23.7302 42.5574 42.2878 42.5547 60.8448 42.5547H61.7413C62.735 42.5607 63.7286 42.5514 64.7228 42.5766C65.6412 42.6019 66.1035 43.0861 66.1315 44.0265C66.1463 44.6029 66.1496 45.2095 66.1496 45.7536Z" fill="#F6921E"/>
<path d="M21.4931 16.1945C21.6616 16.2038 21.823 16.2461 21.9702 16.3307C22.3912 16.5739 22.4099 17.2354 22.2249 17.6306C21.968 18.1813 21.1752 18.5238 20.6839 18.8658C16.0928 22.0609 12.9521 27.1367 11.7987 32.5699C11.7855 32.632 11.7729 32.6935 11.7603 32.7555C11.6895 33.1008 11.622 33.4576 11.4337 33.7552C10.9862 34.4617 10.0173 34.325 9.70218 33.6075C9.42495 32.9745 9.57208 32.1456 9.69395 31.495C9.97008 30.0189 10.4933 28.5509 11.1185 27.1867C11.1328 27.1559 11.1465 27.1252 11.1614 27.095C12.127 25.0599 13.2727 23.1028 14.6622 21.3269C16.0335 19.574 17.7491 18.2142 19.5695 16.9527C20.0334 16.6315 20.8217 16.1566 21.4931 16.1945Z" fill="white"/>
</svg>
