<svg width="31" height="28" viewBox="0 0 31 28" fill="none" xmlns="http://www.w3.org/2000/svg">
<path d="M27.4737 3.05263H22.3147L21.6279 1.69421C21.3752 1.18562 20.9856 0.757619 20.5029 0.458321C20.0203 0.159024 19.4637 0.000301359 18.8958 0H11.6305C11.0626 0.000301359 10.506 0.159024 10.0234 0.458321C9.54073 0.757619 9.15114 1.18562 8.89842 1.69421L8.21158 3.05263H3.05263C2.24302 3.05263 1.46657 3.37425 0.894095 3.94673C0.321615 4.51921 0 5.29565 0 6.10526V24.4211C0 25.2307 0.321615 26.0071 0.894095 26.5796C1.46657 27.1521 2.24302 27.4737 3.05263 27.4737H27.4737C28.2833 27.4737 29.0597 27.1521 29.6322 26.5796C30.2047 26.0071 30.5263 25.2307 30.5263 24.4211V6.10526C30.5263 5.29565 30.2047 4.51921 29.6322 3.94673C29.0597 3.37425 28.2833 3.05263 27.4737 3.05263Z" fill="#831529"/>
<path d="M15.2632 21.3682C18.6351 21.3682 21.3685 18.6348 21.3685 15.263C21.3685 11.8911 18.6351 9.15771 15.2632 9.15771C11.8914 9.15771 9.15796 11.8911 9.15796 15.263C9.15796 18.6348 11.8914 21.3682 15.2632 21.3682Z" fill="#F6921E"/>
</svg>
