<svg width="28" height="33" viewBox="0 0 28 33" fill="none" xmlns="http://www.w3.org/2000/svg">
<path d="M16.8716 19.1318H15.9993V32.3722H16.8716V19.1318Z" fill="#F6921E"/>
<path d="M0 32.3716C0.226887 31.5857 0.441815 30.8172 0.67041 30.0532C1.22396 28.2039 1.7676 26.3512 2.34643 24.5098C2.86103 22.8734 3.94557 21.7322 5.52216 21.0696C7.20775 20.3613 8.89949 19.667 10.5953 18.9836C10.706 18.9388 10.9029 18.9989 11.0125 19.0769C12.0134 19.789 13.0989 20.2349 14.3475 20.0797C14.8286 20.0199 15.2967 19.8498 15.7669 19.7158C15.9275 19.67 16.0762 19.5809 16.2668 19.4951C16.2668 23.8083 16.2668 28.0792 16.2668 32.3716C10.8502 32.3716 5.44289 32.3716 0 32.3716ZM15.1703 29.1497C15.1778 28.6512 14.7907 28.2487 14.2952 28.2401C13.8015 28.2316 13.3959 28.6256 13.3894 29.12C13.3829 29.6155 13.7752 30.0235 14.2652 30.031C14.7569 30.0385 15.1628 29.6435 15.1703 29.1497ZM10.035 25.0265C10.5226 25.0196 10.9169 24.6113 10.9117 24.1176C10.9066 23.6201 10.5144 23.2418 10.0069 23.2445C9.51181 23.2473 9.12467 23.6457 9.13185 24.1456C9.13936 24.641 9.54154 25.0333 10.035 25.0265ZM10.0326 30.0313C10.5263 30.0241 10.9152 29.623 10.9124 29.1241C10.9097 28.6304 10.5041 28.2336 10.0107 28.2418C9.51318 28.25 9.12604 28.6491 9.13185 29.1477C9.13731 29.6431 9.54052 30.0385 10.0326 30.0313ZM15.1707 24.1206C15.1662 23.6201 14.7774 23.2428 14.2693 23.2462C13.7663 23.2493 13.3839 23.6399 13.3908 24.1425C13.3976 24.6373 13.8018 25.0343 14.2915 25.0282C14.7811 25.0214 15.1751 24.6151 15.1707 24.1206Z" fill="#831529"/>
<path d="M19.7367 10.1719C15.9142 10.1719 12.1056 10.1216 8.28376 10.1216C8.4505 9.51377 8.05926 9.45055 7.63248 9.32652C5.74837 8.77878 4.60471 6.85878 5.06566 5.08503C5.5782 3.11344 7.58362 1.9134 9.61432 2.38153C9.8747 2.44167 10.0028 2.40066 10.1422 2.16728C11.8589 -0.702968 16.1072 -0.727569 17.856 2.12492C18.0102 2.37606 18.1414 2.42971 18.4318 2.36991C20.4806 1.94723 22.4088 3.09636 22.9473 5.03549C23.425 6.75627 22.3617 8.66704 20.5855 9.27834C20.5196 9.30089 20.4543 9.33062 20.3863 9.34121C19.9568 9.40716 19.5597 9.54725 19.7367 10.1719Z" fill="#F6921E"/>
<path d="M28 32.3786C24.2554 32.3786 20.5268 32.3786 16.7702 32.3786C16.7626 32.2741 16.749 32.1757 16.749 32.0772C16.7479 27.8867 16.7476 23.6961 16.7483 19.5052C16.7483 19.1345 17.0975 18.8526 17.4146 18.9831C19.0851 19.6692 20.7499 20.3697 22.4222 21.0521C24.2328 21.7908 25.3115 23.1607 25.8545 24.9959C26.568 27.4073 27.2736 29.821 27.9816 32.2341C27.9935 32.2747 27.9928 32.3195 28 32.3786Z" fill="#831529"/>
<path d="M8.28509 10.1021C8.43851 10.1021 8.56255 10.1021 8.68624 10.1021C12.2331 10.1021 15.7802 10.1018 19.327 10.1025C19.7801 10.1025 19.7951 10.1052 19.7627 10.5535C19.5662 13.2488 18.7981 15.7541 17.2775 18.0104C17.203 18.1207 17.1637 18.2926 17.1849 18.4235C17.2659 18.9244 17.0452 19.2121 16.6235 19.4575C15.9046 19.8764 15.172 20.2307 14.3345 20.3237C13.0111 20.4706 11.9238 19.941 10.95 19.1175C10.8567 19.0385 10.84 18.8274 10.8468 18.6804C10.8611 18.3678 10.7279 18.1447 10.57 17.8795C10.0749 17.0488 9.589 16.2014 9.21519 15.312C8.58202 13.8051 8.23486 12.221 8.25194 10.573C8.25399 10.4271 8.2721 10.2812 8.28509 10.1021Z" fill="#831529"/>
<path d="M15.1703 29.15C15.1628 29.6437 14.7568 30.0387 14.2651 30.0312C13.7751 30.0237 13.3829 29.6157 13.3894 29.1202C13.3959 28.6258 13.8014 28.2318 14.2952 28.2404C14.7907 28.2489 15.1781 28.6514 15.1703 29.15Z" fill="#F6921E"/>
<path d="M10.0349 25.0271C9.54153 25.0339 9.13935 24.6413 9.13218 24.1462C9.125 23.6463 9.5118 23.2479 10.0073 23.2451C10.5147 23.2424 10.907 23.6207 10.9121 24.1182C10.9169 24.6119 10.5225 25.0206 10.0349 25.0271Z" fill="#F6921E"/>
<path d="M10.0325 30.0318C9.54045 30.039 9.13759 29.6436 9.13178 29.1482C9.12597 28.6496 9.51311 28.2509 10.0106 28.2423C10.504 28.2341 10.9096 28.6308 10.9124 29.1246C10.9151 29.6235 10.5262 30.0246 10.0325 30.0318Z" fill="#F6921E"/>
<path d="M15.1706 24.1209C15.1751 24.6153 14.7811 25.0216 14.2914 25.0281C13.8014 25.0346 13.3975 24.6372 13.3907 24.1424C13.3839 23.6397 13.7662 23.2495 14.2692 23.2461C14.7777 23.243 15.1662 23.6203 15.1706 24.1209Z" fill="#F6921E"/>
</svg>
