<svg width="18" height="18" viewBox="0 0 18 18" fill="none" xmlns="http://www.w3.org/2000/svg">
<path d="M17.1 12.5996H15.3C15.0613 12.5996 14.8323 12.5048 14.6636 12.336C14.4948 12.1672 14.4 11.9383 14.4 11.6996V9.89962C14.4 9.66092 14.4948 9.432 14.6636 9.26322C14.8323 9.09444 15.0613 8.99961 15.3 8.99961H17.1C17.3387 8.99961 17.5676 9.09444 17.7364 9.26322C17.9051 9.432 18 9.66092 18 9.89962V11.6996C18 11.9383 17.9051 12.1672 17.7364 12.336C17.5676 12.5048 17.3387 12.5996 17.1 12.5996ZM17.1 7.19961H15.3C15.0613 7.19961 14.8323 7.10479 14.6636 6.93601C14.4948 6.76723 14.4 6.53831 14.4 6.29961V4.49961C14.4 4.26092 14.4948 4.032 14.6636 3.86321C14.8323 3.69443 15.0613 3.59961 15.3 3.59961H17.1C17.3387 3.59961 17.5676 3.69443 17.7364 3.86321C17.9051 4.032 18 4.26092 18 4.49961V6.29961C18 6.53831 17.9051 6.76723 17.7364 6.93601C17.5676 7.10479 17.3387 7.19961 17.1 7.19961Z" fill="#F6921E"/>
<path d="M14.4 0H2.69997C1.70585 0 0.899963 0.805888 0.899963 1.8V16.2C0.899963 17.1941 1.70585 18 2.69997 18H14.4C15.3941 18 16.2 17.1941 16.2 16.2V1.8C16.2 0.805888 15.3941 0 14.4 0Z" fill="#831529"/>
<path d="M2.7 13.5H0.900001C0.661306 13.5 0.432387 13.4052 0.263604 13.2364C0.0948212 13.0676 0 12.8387 0 12.6C0 12.3613 0.0948212 12.1324 0.263604 11.9636C0.432387 11.7948 0.661306 11.7 0.900001 11.7H2.7C2.9387 11.7 3.16762 11.7948 3.3364 11.9636C3.50518 12.1324 3.6 12.3613 3.6 12.6C3.6 12.8387 3.50518 13.0676 3.3364 13.2364C3.16762 13.4052 2.9387 13.5 2.7 13.5ZM2.7 9.90001H0.900001C0.661306 9.90001 0.432387 9.80518 0.263604 9.6364C0.0948212 9.46762 0 9.2387 0 9C0 8.76131 0.0948212 8.53239 0.263604 8.36361C0.432387 8.19483 0.661306 8.1 0.900001 8.1H2.7C2.9387 8.1 3.16762 8.19483 3.3364 8.36361C3.50518 8.53239 3.6 8.76131 3.6 9C3.6 9.2387 3.50518 9.46762 3.3364 9.6364C3.16762 9.80518 2.9387 9.90001 2.7 9.90001ZM2.7 6.3H0.900001C0.661306 6.3 0.432387 6.20518 0.263604 6.0364C0.0948212 5.86761 0 5.6387 0 5.4C0 5.16131 0.0948212 4.93239 0.263604 4.7636C0.432387 4.59482 0.661306 4.5 0.900001 4.5H2.7C2.9387 4.5 3.16762 4.59482 3.3364 4.7636C3.50518 4.93239 3.6 5.16131 3.6 5.4C3.6 5.6387 3.50518 5.86761 3.3364 6.0364C3.16762 6.20518 2.9387 6.3 2.7 6.3Z" fill="#F6921E"/>
</svg>
