<svg width="87" height="102" viewBox="0 0 87 102" fill="none" xmlns="http://www.w3.org/2000/svg">
<path d="M79.8722 12.4911C78.8897 12.2632 77.9142 12.2571 77.1138 12.9659C76.7365 13.3044 76.4309 13.7594 76.203 14.2152C75.969 14.6711 75.8585 15.1908 75.7152 15.6985C75.533 16.2907 75.3379 16.8761 74.863 17.3121C74.3683 17.7671 73.8348 17.7869 73.3409 17.3449C73.1847 17.2016 73.0483 17.0263 72.9438 16.8441C72.5536 16.1414 72.4042 15.3738 72.462 14.5804C72.5337 13.6765 72.7349 12.7915 73.113 11.9653C73.3996 11.3411 73.77 10.7488 74.0368 10.1177C74.2906 9.51249 74.5704 8.88828 74.661 8.25026C74.8363 6.98803 74.7327 5.7258 74.1534 4.56113C73.7959 3.8454 73.4316 3.11673 72.9887 2.44676C72.6477 1.93824 72.2989 1.43318 71.8965 0.970416C71.5926 0.620756 71.2551 0.268505 70.8752 0C70.8933 0.0129504 70.9089 0.0690688 70.9192 0.0897894C70.9365 0.125187 70.9546 0.159722 70.9727 0.194256C71.0081 0.260735 71.0444 0.327213 71.0807 0.393692C71.1541 0.525786 71.2309 0.656153 71.3077 0.78652C71.4614 1.04725 71.6082 1.30972 71.7454 1.57995C72.0001 2.08329 72.2186 2.60562 72.3835 3.14522C72.5501 3.68913 72.6615 4.25032 72.7081 4.81754C72.7323 5.11281 72.7392 5.40981 72.7288 5.70594C72.69 6.92932 72.3774 8.09399 71.8309 9.19305C71.2067 10.4423 70.5298 11.6718 69.9635 12.9469C69.5145 13.9424 69.1502 14.9767 68.8247 16.011C68.4276 17.2663 68.5778 18.5096 69.1562 19.6803C69.4161 20.2069 69.7226 20.7275 70.0869 21.1963C70.731 22.0096 71.4467 22.7711 72.1106 23.5775C73.9582 25.8352 75.3957 28.3467 76.5872 30.9946C77.8028 33.6986 78.8897 36.7031 78.7257 39.7137C78.6989 40.2092 78.6307 40.7074 78.4848 41.1831C78.4451 41.3135 78.389 41.4386 78.326 41.5587C78.2638 41.6778 78.193 41.7918 78.1222 41.9057C78.0523 42.0171 77.9824 42.1276 77.9176 42.2416C77.8667 42.3314 77.8183 42.4229 77.7812 42.5196C77.7872 42.5049 77.8632 42.4773 77.8813 42.4678C77.9245 42.4445 77.9668 42.4203 78.0083 42.3944C78.0877 42.3452 78.1654 42.2925 78.2388 42.2347C78.3769 42.1267 78.503 42.0016 78.6221 41.8729C78.8509 41.626 79.0495 41.3523 79.2118 41.057C79.5338 40.4725 79.7056 39.8181 79.7686 39.1559C79.7825 39.0074 79.792 38.8589 79.7963 38.7104C79.861 37.1098 79.3801 35.6205 78.749 34.1761C77.9159 32.2827 77.1423 30.3704 76.5759 28.3795C75.8015 25.6469 75.2878 22.8885 75.678 20.0256C75.9319 18.1521 76.5759 16.447 77.7277 14.9378C78.3519 14.1185 79.1004 13.4347 79.9206 12.8235C80.1321 12.6603 80.1131 12.5429 79.8722 12.4911Z" fill="#E8E8E8"/>
<path d="M86.2671 23.2649C85.7007 22.9333 85.1093 22.8487 84.4972 23.1345C84.0353 23.3555 83.6709 23.6879 83.3843 24.1041C83.1823 24.4036 83.0001 24.7153 82.7661 24.976C82.4666 25.3335 82.0962 25.64 81.5954 25.4509C80.8771 25.1807 80.9099 24.2042 81.0826 23.6016C81.2734 22.9359 81.5937 22.3083 82.0159 21.7592C82.4346 21.2135 82.9958 20.8345 83.4482 20.326C83.9688 19.7415 84.2969 19.0197 84.4195 18.2488C84.5153 17.6504 84.5015 17.0375 84.4083 16.44C84.315 15.8417 84.1432 15.2581 83.9403 14.6883C83.8566 14.4526 83.7668 14.2177 83.6744 13.9855C83.6459 13.9147 83.6079 13.7999 83.5293 13.7688C83.4983 13.7567 83.5017 13.755 83.487 13.7817C83.4741 13.8068 83.4767 13.8517 83.4775 13.8793C83.4784 13.9458 83.4931 14.0122 83.5078 14.077C83.5699 14.3662 83.6174 14.6589 83.6502 14.9533C83.6658 15.0932 83.677 15.233 83.6813 15.3738C83.6865 15.5231 83.6735 15.6708 83.6735 15.8193C83.6692 15.8762 83.664 15.9341 83.658 15.9911C83.4758 17.5978 82.7083 18.8859 81.5367 19.9858C80.7303 20.7534 79.949 21.5537 79.2074 22.3799C78.3613 23.3365 77.8018 24.4295 78.0099 25.7565C78.0876 26.2702 78.2378 26.7718 78.4001 27.2657C78.5694 27.7604 78.8102 28.2223 78.9984 28.7101C79.7703 30.7062 80.2356 32.8093 80.3936 34.9435C80.4618 35.8647 80.4739 36.7894 80.4359 37.7123C80.3979 38.6422 80.3211 39.5772 80.0051 40.4587C79.8842 40.7945 79.7314 41.1191 79.5441 41.423C79.3541 41.7304 79.0606 41.9635 78.8776 42.2734C79.418 42.1094 79.8618 41.8167 80.2037 41.36C81.036 40.248 81.1758 38.7285 81.0541 37.3894C80.8918 35.5936 80.7416 33.8048 80.9367 31.996C81.099 30.4541 81.3727 28.9449 82.0297 27.5264C82.6807 26.1148 83.6364 24.9562 85.0221 24.1956C85.4192 23.9806 85.8354 23.8243 86.2455 23.6292C86.4561 23.5247 86.4622 23.3754 86.2671 23.2649Z" fill="#E8E8E8"/>
<path d="M83.5363 42.6309C83.532 42.0206 83.4301 41.9506 82.8611 42.182C80.6181 43.1023 78.3838 44.0503 76.1451 44.9758C75.8118 45.1096 75.5942 45.2901 75.659 45.67C75.7609 46.2622 75.4742 46.7017 75.1453 47.136C74.225 48.3619 73.0819 49.3427 71.824 50.1983C69.2986 51.9095 66.5273 53.1121 63.6549 54.0886C55.6109 56.822 47.2847 57.8399 38.8341 58.0341C35.9341 58.0989 33.0427 57.9556 30.147 57.7147C26.3128 57.3909 22.5192 56.8039 18.8051 55.7721C16.2797 55.0694 13.8183 54.1766 11.5658 52.8117C11.1358 52.5484 10.756 52.2013 10.3588 51.8913C10.3407 51.8818 10.3174 51.8732 10.2984 51.8637L10.3079 51.8499C10.326 51.8637 10.3407 51.8775 10.3588 51.8913C10.5065 51.9561 10.6645 52.0165 10.8078 52.0994C12.2694 52.9826 13.833 53.6491 15.4518 54.181C19.4949 55.5131 23.6666 56.0916 27.8902 56.3877C31.8219 56.6605 35.758 56.582 39.6897 56.2858C44.1628 55.9526 48.5849 55.324 52.9561 54.3528C57.6467 53.3124 62.2165 51.9103 66.5601 49.8383C68.7849 48.7789 70.9079 47.5391 72.7909 45.9385C73.8822 45.013 74.8397 43.9726 75.5157 42.7009C76.695 40.4855 76.4265 38.2788 74.7663 36.3966C73.9245 35.4392 72.9066 34.7036 71.8015 34.0837C69.9746 33.0615 68.0226 32.3535 66.0101 31.8079C61.0147 30.4481 55.9027 30.0319 50.7597 29.9577C48.9976 29.9301 47.2303 30.0406 45.4682 30.0777C44.7835 30.0915 44.7516 30.082 44.6402 29.4716C44.3769 28.0652 43.5671 27.0387 42.3825 26.3497C39.1121 24.4529 35.7727 24.4391 32.5023 26.3126C30.3741 27.5291 29.7913 29.2497 30.495 31.5998C30.5873 31.9003 30.5597 32.0807 30.2221 32.1506C29.9122 32.2111 29.6066 32.2845 29.3018 32.3587C24.6302 33.4733 20.0742 34.9117 15.7678 37.0813C13.9357 38.0068 12.1831 39.0653 10.6006 40.3793C9.30553 41.4525 8.16763 42.6646 7.44154 44.2143C7.14541 44.8576 7.12209 44.8619 6.46594 44.589C4.69001 43.8535 2.9184 43.1041 1.14679 42.3642C0.91541 42.2666 0.679717 42.1699 0.44402 42.0913C0.226454 42.0223 0.0693193 42.0957 0.0416918 42.3365C0.0235613 42.5265 0.0140664 42.7156 0.0140664 42.9055C0.0140664 45.676 0.0373715 48.4517 0.000247027 51.2222C-0.00924992 51.9026 0.254936 52.2401 0.81871 52.5311C2.44269 53.3772 4.03818 54.2656 5.63885 55.1488C7.13332 55.9768 6.93821 55.6392 6.94339 57.3918C6.95288 65.3666 6.9477 73.3363 6.9477 81.3103C6.9477 83.0172 7.11864 84.7059 7.54859 86.3618C9.81491 95.1551 17.5903 101.182 26.6936 101.187C36.5557 101.191 46.4213 101.191 56.2878 101.187C57.0743 101.182 57.8609 101.149 58.6465 101.085C63.7067 100.659 67.9716 98.5594 71.413 94.8495C74.9933 91.0006 76.6398 86.3704 76.6536 81.1489C76.6674 73.1144 76.6536 65.08 76.6579 57.0447C76.6579 55.6711 76.5465 55.9025 77.7406 55.2403C79.4517 54.2967 81.1724 53.3668 82.8888 52.437C83.2678 52.2332 83.5553 52.0208 83.5501 51.5166C83.532 48.5519 83.5458 45.5914 83.5363 42.6309ZM6.34422 49.1994C6.3399 49.1994 6.33989 49.1994 6.33989 49.1994C6.33989 49.8883 6.3537 50.5825 6.33557 51.2714C6.32608 51.6781 6.20176 51.7713 5.89181 51.5995C4.81866 51.0073 3.75931 50.3874 2.69565 49.7865C2.41851 49.6293 2.31146 49.3885 2.31146 49.0837C2.31578 48.1081 2.29765 47.1316 2.32096 46.1604C2.33477 45.6933 2.45046 45.619 2.92703 45.7252C3.875 45.9428 4.81434 46.1923 5.76749 46.4099C6.16982 46.4979 6.35458 46.7103 6.34594 47.1221C6.33558 47.8163 6.34422 48.5061 6.34422 49.1994ZM81.2328 49.0837C81.2372 49.4403 81.0757 49.6665 80.7753 49.8331C79.7574 50.402 78.7585 50.9943 77.7406 51.5538C77.352 51.7713 77.2225 51.6971 77.2087 51.2671C77.1854 50.573 77.2044 49.884 77.2044 49.1899C77.2001 49.1899 77.2001 49.1899 77.2001 49.1899C77.2001 48.5329 77.2096 47.8715 77.1958 47.2145C77.1863 46.7794 77.3348 46.5066 77.7924 46.4047C78.7403 46.1923 79.684 45.9376 80.6328 45.72C81.1042 45.6087 81.2113 45.6881 81.2251 46.1595C81.2467 47.1368 81.2233 48.1081 81.2328 49.0837Z" fill="#831529"/>
</svg>
