<svg width="103" height="92" viewBox="0 0 103 92" fill="none" xmlns="http://www.w3.org/2000/svg">
<path d="M46.7718 16.3441C47.5005 16.8199 48.2335 17.2887 48.957 17.7713C51.4089 19.4065 53.5846 21.3559 55.5487 23.5506C57.1071 25.2929 58.4807 27.1707 59.6497 29.1901C61.6371 32.621 63.066 36.2696 63.7826 40.1815C63.8801 40.7159 63.9673 41.252 64.0839 41.7822C64.1599 42.1284 64.039 42.2518 63.7032 42.2164C63.6073 42.2061 63.5089 42.2156 63.4122 42.2156C58.3236 42.2156 53.2358 42.2147 48.1471 42.2156C36.8812 42.2164 25.6152 42.2182 14.3492 42.2199C12.8755 42.2199 11.4009 42.219 9.9271 42.2138C9.37973 42.2121 9.3642 42.2061 9.37974 41.6639C9.48507 38.1112 10.0618 34.6448 11.2437 31.2811C12.0838 28.8905 13.1777 26.6267 14.5288 24.4908C15.7341 22.5854 17.1301 20.8241 18.7023 19.1993C20.2192 17.6314 21.8682 16.2215 23.6545 14.9792C25.585 13.6358 27.6406 12.5082 29.8206 11.6121C32.8553 10.3645 35.9936 9.54087 39.2675 9.25855C39.422 9.2456 39.5757 9.19725 39.7294 9.19812C40.0316 9.19984 40.2077 9.07811 40.2163 8.76385C40.2232 8.50829 40.3666 8.44959 40.5971 8.45131C41.8792 8.45736 43.1612 8.45563 44.4442 8.45045C44.6903 8.44959 44.8716 8.50484 44.8742 8.79061C44.8776 9.13768 45.1133 9.16704 45.3818 9.2033C46.651 9.37424 47.9296 9.49943 49.1832 9.75067C53.102 10.5337 56.7609 11.9997 60.1435 14.1288C62.6671 15.7173 64.9308 17.6176 66.9641 19.8079C69.3115 22.3359 71.1548 25.197 72.626 28.2913C74.0997 31.3916 75.0529 34.6655 75.4302 38.0878C75.5614 39.2827 75.6089 40.4871 75.7047 41.6855C75.7366 42.08 75.6002 42.2285 75.1832 42.2251C72.9877 42.2069 70.7922 42.2087 68.5975 42.2225C68.228 42.2251 68.1054 42.1206 68.083 41.7355C67.8904 38.4755 67.2144 35.3208 65.9263 32.3111C64.8506 29.7987 63.439 27.4918 61.6777 25.3956C60.0693 23.4807 58.2433 21.8118 56.1885 20.3933C54.0853 18.942 51.8225 17.8015 49.399 16.9917C48.5572 16.7102 47.6982 16.4831 46.8469 16.231C46.8193 16.2682 46.796 16.3062 46.7718 16.3441Z" fill="#831529"/>
<path d="M42.5033 7.07949C42.0181 7.07949 41.5329 7.08553 41.0477 7.07776C40.6747 7.07172 40.2896 7.16324 39.9849 6.79804C39.8916 6.6858 39.6197 6.7212 39.4289 6.69184C38.6052 6.56666 37.7773 6.46651 36.9605 6.30765C36.6065 6.23858 36.2577 6.08317 35.9374 5.90964C35.4825 5.66272 35.4928 5.3545 35.9487 5.09635C36.1481 4.98412 36.3743 4.90383 36.5979 4.8503C37.1617 4.71475 37.7324 4.60424 38.2987 4.47733C38.3868 4.45747 38.4671 4.39876 38.5508 4.35818C38.4982 4.28911 38.4524 4.214 38.392 4.1527C37.9266 3.67958 37.8955 3.32129 38.4584 2.96817C38.9868 2.63664 39.6102 2.44412 40.2085 2.2395C40.5141 2.13503 40.7256 2.10223 40.742 1.66796C40.7524 1.3865 41.0339 1.02562 41.2955 0.858988C42.0949 0.348742 42.9566 0.378961 43.7811 0.827044C44.167 1.03684 44.4657 1.36319 44.3889 1.8579C44.35 2.10913 44.4683 2.12726 44.6617 2.18079C45.1832 2.32411 45.7012 2.48642 46.2045 2.6824C46.4316 2.77047 46.6517 2.92846 46.8184 3.10717C47.0705 3.37827 47.08 3.70289 46.8503 4.00939C46.5455 4.41603 46.5447 4.40221 47.0722 4.51013C47.5842 4.61546 48.0918 4.74151 48.5977 4.87447C48.7834 4.92282 48.9698 4.99534 49.133 5.09463C49.5707 5.36313 49.5811 5.68776 49.1348 5.92259C48.7963 6.10044 48.4259 6.25239 48.0521 6.32319C47.2155 6.48032 46.3677 6.57961 45.5242 6.70134C45.4283 6.71515 45.304 6.69184 45.2401 6.74451C44.5287 7.32555 43.6904 6.99056 42.9117 7.07776C42.777 7.09244 42.6397 7.07949 42.5033 7.07949Z" fill="#831529"/>
<path d="M101.767 68.4238C96.2112 68.4221 90.6555 68.423 85.0998 68.4238C84.4661 68.4238 84.4626 68.4282 84.4626 69.0714C84.4609 72.3737 84.46 75.6761 84.4635 78.9784C84.4635 79.1701 84.5049 79.3609 84.5265 79.5525C84.5032 79.6829 84.46 79.8141 84.46 79.9445C84.4566 83.7519 84.4557 87.5593 84.4583 91.3668C84.4583 91.9288 84.4687 91.9331 85.0583 91.934C87.0786 91.9366 89.0988 91.9374 91.1191 91.9305C91.328 91.9297 91.537 91.8744 91.7459 91.8442C91.8538 91.8735 91.9617 91.9288 92.0697 91.9288C93.5244 91.9348 94.98 91.9348 96.4348 91.9279C96.5609 91.9271 96.6869 91.864 96.813 91.8295C96.9796 91.8649 97.1462 91.9271 97.3146 91.9305C97.9362 91.9426 98.5587 91.9193 99.1794 91.9426C99.5394 91.9564 99.6733 91.8502 99.7147 91.4686C100.084 88.1145 100.474 84.7629 100.866 81.4114C101.348 77.288 101.839 73.1663 102.326 69.0429C102.397 68.4385 102.384 68.4238 101.767 68.4238ZM89.5538 78.0779C90.7867 78.0253 91.8452 79.0915 91.8702 80.352C91.8944 81.5927 90.8463 82.6814 89.6125 82.6978C88.3918 82.7133 87.2521 81.6548 87.2547 80.4409C87.2564 79.1632 88.1414 78.1384 89.5538 78.0779ZM91.0811 89.1833C90.3067 89.8343 89.2439 89.9396 88.3771 89.4121C87.5051 88.8811 87.0743 87.8209 87.3367 86.8471C87.5975 85.8775 88.4574 85.1937 89.4615 85.1514C89.6505 85.1437 89.8379 85.1109 90.0261 85.0893C90.9369 85.4562 91.625 86.0346 91.878 87.0301C91.878 87.8451 91.7649 88.6083 91.0811 89.1833Z" fill="#831529"/>
<path d="M85.1205 46.396C85.1145 46.2164 85.0869 46.0385 84.9833 45.9177C84.8538 45.7657 84.6284 45.7476 84.4281 45.7415C83.1072 45.7036 81.7854 45.6975 80.4636 45.7079C79.1642 45.7174 77.8536 45.7959 76.5569 45.7562C73.9702 45.6768 71.3689 45.7536 68.7806 45.7545C68.3576 45.7545 67.9345 45.7545 67.5115 45.7545C59.1498 45.7545 50.7891 45.7579 42.4274 45.7554C37.1445 45.7545 31.8625 45.7536 26.5796 45.7536C19.6416 45.7536 12.7046 45.8961 5.76833 45.7787C4.27299 45.7536 2.77765 45.7519 1.28232 45.7528C1.03022 45.7528 0.777251 45.7579 0.525151 45.7562C0.172037 45.7545 -0.0161759 45.8978 0.0010913 46.2811C0.0192218 46.6688 0.00195475 47.0582 0.00540819 47.4458C0.0105883 48.0502 0.0563466 48.1141 0.667605 48.1227C2.85967 48.1546 5.05347 48.1469 7.20151 48.6847C7.8024 48.9774 8.30661 49.3702 8.63727 49.972C8.7262 50.1334 8.88074 50.2785 9.03787 50.3804C10.0411 51.0305 11.2049 51.1211 12.3661 51.1876C13.6776 51.2627 14.9907 51.3128 16.3048 51.3378C16.6164 51.3439 19.9784 51.3327 19.9784 51.3974C19.9335 51.583 19.8817 51.7678 19.8471 51.956C19.8264 52.0691 19.8264 52.1882 19.8281 52.3048C19.8454 53.3477 20.3487 54.1766 21.0835 54.8405C21.9313 55.6063 22.8473 56.297 23.7426 57.0092C26.1566 58.9285 28.5809 60.8357 30.9914 62.7592C33.0824 64.4272 35.1545 66.1211 37.2499 67.784C39.119 69.2672 41.0219 70.7064 42.885 72.1966C45.2333 74.0753 47.5661 75.9746 49.8868 77.887C52.1022 79.713 54.2762 81.5899 56.5036 83.4004C58.1293 84.7213 59.8215 85.9559 61.7002 86.9117C63.5219 87.8389 65.4161 88.3423 67.4838 88.0807C68.5415 87.9468 69.6111 87.8432 70.6757 87.8407C73.3745 87.8355 76.0742 87.8925 78.7731 87.9304C79.3447 87.9382 79.349 87.9512 79.3498 87.3701C79.3524 85.1168 79.3507 82.8625 79.3507 80.6092C79.3507 77.6953 79.3516 74.7806 79.349 71.8668C79.3481 71.2866 79.3429 71.3358 78.7792 71.3479C77.8122 71.3686 76.8297 71.417 75.8791 71.2797C74.496 71.0794 73.3063 70.4604 72.8298 69.0203C72.5699 68.2338 72.3696 67.4093 72.2876 66.5873C72.1451 65.1594 72.0924 63.721 72.0432 62.2861C71.9837 60.5274 71.9249 58.7688 71.8826 57.0101C71.8412 55.286 71.7885 53.6206 72.0873 51.9154C72.1019 51.8308 72.1175 51.7462 72.1322 51.6607C72.1555 51.5295 72.1865 51.3853 72.2953 51.3076C72.3713 51.2532 72.4689 51.2446 72.5612 51.2368C73.0085 51.2006 73.4557 51.1695 73.9012 51.1142C75.0451 50.9709 76.0855 50.6808 76.7529 49.5818C76.9704 49.2226 77.4392 48.955 77.851 48.7875C78.9795 48.3299 80.1899 48.2539 81.3925 48.1987C82.4009 48.152 83.4119 48.1564 84.4221 48.127C84.7001 48.1192 84.9953 48.1132 85.0756 47.8015C85.1585 47.476 85.1395 47.1341 85.1231 46.8017C85.1171 46.6843 85.1257 46.5393 85.1205 46.396ZM34.2583 58.6678C32.9581 57.7906 31.6605 56.9091 30.3568 56.0362C28.6482 54.8923 26.937 53.7527 25.2233 52.6165C24.7225 52.2849 24.2088 51.9724 23.7055 51.6443C23.6148 51.5856 23.5458 51.495 23.4663 51.419C23.5699 51.394 23.6735 51.3473 23.7763 51.3473C25.0584 51.3422 26.3413 51.3447 27.6234 51.3447C28.1872 51.3447 28.7509 51.3542 29.3139 51.3413C29.578 51.3352 29.73 51.4181 29.8474 51.672C30.8998 53.9417 32.4099 55.9171 33.8784 57.9201C34.0373 58.1377 34.1849 58.3639 34.3369 58.5857C34.3118 58.6125 34.2851 58.6401 34.2583 58.6678ZM41.3318 59.3628C41.274 59.3144 41.2058 59.2747 41.16 59.2177C40.5988 58.5253 40.0445 57.8277 39.4808 57.137C37.9241 55.229 36.2941 53.3883 34.4785 51.7194C34.3887 51.6366 34.3395 51.5105 34.2704 51.4052C34.3792 51.3853 34.4871 51.3482 34.5959 51.3473C35.1977 51.3413 35.7985 51.3447 36.4003 51.3447C37.0021 51.3447 37.603 51.3542 38.2047 51.3413C38.4724 51.3352 38.6148 51.4121 38.7115 51.6884C39.4238 53.7095 40.1585 55.7237 40.882 57.7414C41.0452 58.1964 41.1954 58.6565 41.3422 59.1184C41.3655 59.1901 41.337 59.2799 41.3318 59.3628ZM47.6033 60.5361C47.466 60.3116 47.3253 60.0888 47.1932 59.8618C45.659 57.2363 44.1265 54.61 42.594 51.9836C42.5742 51.95 42.5466 51.9197 42.5336 51.8843C42.4732 51.7281 42.4171 51.5709 42.3592 51.4147C42.525 51.3914 42.6907 51.3482 42.8574 51.3473C43.6914 51.3404 44.5262 51.3551 45.3611 51.3387C45.6452 51.3327 45.8075 51.4285 45.8446 51.7056C46.2409 54.6082 46.992 57.4357 47.6628 60.2805C47.6792 60.3522 47.6741 60.429 47.6784 60.5024C47.6525 60.5128 47.6274 60.5248 47.6033 60.5361ZM67.0254 51.9793C66.6015 55.3102 65.7208 58.5184 64.3343 61.5712C63.8646 62.6047 63.2283 63.5734 62.5843 64.5127C61.5905 65.9614 60.172 66.274 58.5248 65.8639C56.8274 65.4417 55.6144 64.3685 54.631 62.9958C53.4758 61.383 52.8292 59.5397 52.211 57.674C51.5954 55.8178 50.8849 53.9918 50.1968 52.1606C49.8868 51.3344 49.8661 51.3422 50.7148 51.3422C53.2962 51.3422 55.8777 51.3422 58.4591 51.3422C61.12 51.3413 63.78 51.3413 66.4409 51.3422C67.104 51.343 67.1057 51.3551 67.0254 51.9793Z" fill="#831529"/>
<path d="M91.8771 87.0283C91.878 87.8442 91.7649 88.6083 91.0811 89.1824C90.3067 89.8334 89.2439 89.9387 88.3771 89.4112C87.5051 88.8802 87.0742 87.8201 87.3367 86.8462C87.5974 85.8766 88.4573 85.1928 89.4614 85.1505C89.6505 85.1428 89.8379 85.11 90.0261 85.0884C90.9361 85.4553 91.6241 86.0338 91.8771 87.0283Z" fill="white"/>
<path d="M89.6117 82.6976C88.391 82.7132 87.2513 81.6547 87.2539 80.4408C87.2565 79.1639 88.1423 78.1382 89.5539 78.0778C90.7868 78.0251 91.8453 79.0914 91.8703 80.3519C91.8945 81.5934 90.8455 82.6821 89.6117 82.6976Z" fill="white"/>
</svg>
