<svg width="20" height="20" viewBox="0 0 20 20" fill="none" xmlns="http://www.w3.org/2000/svg">
<path d="M19.12 3.4116L16.3 0.591597C16.1141 0.40414 15.8928 0.255351 15.6491 0.153814C15.4054 0.0522765 15.144 0 14.88 0C14.616 0 14.3545 0.0522765 14.1108 0.153814C13.8671 0.255351 13.6459 0.40414 13.46 0.591597L10.58 3.4716C10.4862 3.56456 10.4119 3.67516 10.3611 3.79702C10.3103 3.91888 10.2842 4.04958 10.2842 4.1816C10.2842 4.31361 10.3103 4.44431 10.3611 4.56617C10.4119 4.68803 10.4862 4.79863 10.58 4.8916L14.82 9.1316C14.9129 9.22532 15.0235 9.29972 15.1454 9.35049C15.2673 9.40126 15.398 9.42739 15.53 9.42739C15.662 9.42739 15.7927 9.40126 15.9146 9.35049C16.0364 9.29972 16.147 9.22532 16.24 9.1316L19.12 6.2516C19.3074 6.06567 19.4562 5.84447 19.5578 5.60075C19.6593 5.35703 19.7116 5.09562 19.7116 4.8316C19.7116 4.56757 19.6593 4.30616 19.5578 4.06244C19.4562 3.81873 19.3074 3.59752 19.12 3.4116Z" fill="#F6921E"/>
<path d="M13.42 10.5319L9.18002 6.29189C9.08705 6.19816 8.97645 6.12377 8.85459 6.073C8.73273 6.02223 8.60203 5.99609 8.47002 5.99609C8.33801 5.99609 8.2073 6.02223 8.08544 6.073C7.96358 6.12377 7.85298 6.19816 7.76002 6.29189L0.290017 13.7619C0.197335 13.8553 0.12401 13.9661 0.0742455 14.088C0.0244809 14.2098 -0.000744179 14.3403 1.67143e-05 14.4719V18.7119C1.67143e-05 18.9771 0.105374 19.2315 0.29291 19.419C0.480446 19.6065 0.7348 19.7119 1.00002 19.7119H5.24002C5.37994 19.7195 5.51991 19.6976 5.65084 19.6477C5.78176 19.5977 5.90073 19.5208 6.00002 19.4219L13.47 11.9519C13.5605 11.8557 13.6311 11.7425 13.6776 11.6188C13.7242 11.4952 13.7457 11.3635 13.7411 11.2315C13.7364 11.0994 13.7057 10.9696 13.6506 10.8496C13.5954 10.7295 13.5171 10.6215 13.42 10.5319Z" fill="white"/>
</svg>
