<svg width="33" height="27" viewBox="0 0 33 27" fill="none" xmlns="http://www.w3.org/2000/svg">
<path d="M9.68932 14.2989C14.2192 14.2989 18.7492 14.2976 23.2791 14.2999C24.2595 14.3005 24.9828 15.0239 24.9391 15.9619C24.9128 16.5328 24.64 16.9817 24.1412 17.2489C23.9073 17.3744 23.8522 17.5278 23.8287 17.7614C23.4645 21.4009 21.6588 24.1003 18.4696 25.8624C17.0777 26.6316 15.559 27.0073 13.9677 26.9995C12.6696 26.9933 11.3569 27.0285 10.0767 26.8548C5.88273 26.2859 2.3482 22.669 1.77736 18.4747C1.76107 18.3544 1.72294 18.2342 1.72718 18.1153C1.7438 17.6735 1.62259 17.3639 1.19772 17.1036C0.624269 16.752 0.454515 15.9991 0.674119 15.367C0.896005 14.7287 1.49096 14.3022 2.19539 14.3005C4.26762 14.296 6.33953 14.2986 8.41177 14.2986L9.68932 14.2989ZM22.8219 17.5014C16.1045 17.5014 9.42931 17.5014 2.68966 17.5014C2.82683 18.2212 2.95814 18.9122 3.09433 19.6261C3.25203 19.5759 3.32469 19.5538 3.39702 19.5297C5.1304 18.9527 6.9094 18.7141 8.70599 19.0735C9.90892 19.3143 11.0923 19.6861 12.2565 20.081C13.9403 20.6518 15.6428 20.9346 17.3875 20.5068C19.075 20.093 20.7422 19.5961 22.415 19.1244C22.4932 19.1022 22.5795 18.9794 22.5961 18.8911C22.6818 18.4388 22.7464 17.982 22.8219 17.5014Z" fill="#831529"/>
<path d="M21.3613 5.34739C21.2277 5.59502 21.042 5.75467 20.8139 5.83939H15.086C14.9198 5.83939 14.7536 5.85242 14.5875 5.83613C14.0987 5.784 13.711 5.87849 13.4112 6.34767C13.1571 6.74517 12.7042 6.89505 12.2252 6.89505C11.1663 6.89831 10.1074 6.90483 9.05173 6.89505C7.5953 6.87876 6.43211 5.72861 6.41256 4.29824C6.38975 2.87114 7.54969 1.64278 8.9996 1.60369C10.0911 1.57762 11.1826 1.59065 12.2741 1.60043C12.8313 1.60694 13.2451 1.88064 13.5839 2.32375C13.7012 2.47689 13.926 2.63655 14.1052 2.6398C15.6725 2.66587 17.2364 2.65284 18.846 2.65284H20.1916C20.55 3.16764 20.9117 3.68244 21.2701 4.19724C21.5242 4.56216 21.5764 4.94989 21.3613 5.34739Z" fill="#F6921E"/>
<path d="M11.7085 8.4673C11.7157 8.75403 11.4863 8.99937 11.1992 9.01143C10.9128 9.02348 10.6642 8.79736 10.6479 8.51031C10.631 8.20958 10.8711 7.95316 11.1728 7.95022C11.4609 7.94729 11.701 8.17928 11.7085 8.4673Z" fill="#F6921E"/>
<path d="M9.06018 9.54016C8.77216 9.53984 8.53496 9.30525 8.5304 9.01722C8.52583 8.71583 8.77639 8.46951 9.07745 8.47929C9.36548 8.48873 9.59584 8.73049 9.59095 9.0182C9.58639 9.30525 9.34723 9.54049 9.06018 9.54016Z" fill="#F6921E"/>
<path d="M8.00325 10.0787C7.99706 10.366 7.75693 10.6 7.46955 10.5984C7.16881 10.5964 6.92673 10.34 6.94237 10.0399C6.95768 9.7522 7.204 9.52673 7.49171 9.53748C7.77973 9.5479 8.00944 9.79129 8.00325 10.0787Z" fill="#F6921E"/>
<path d="M10.1185 10.5982C10.1178 10.3096 10.3505 10.072 10.6391 10.0665C10.9399 10.061 11.1881 10.3115 11.1794 10.6119C11.1709 10.899 10.9288 11.1316 10.6417 11.1277C10.3537 11.1238 10.1191 10.8866 10.1185 10.5982Z" fill="#F6921E"/>
<path d="M9.59134 11.6636C9.5871 11.951 9.3486 12.1866 9.06155 12.1869C8.76081 12.1872 8.51677 11.9325 8.53046 11.632C8.54349 11.344 8.78818 11.1172 9.07621 11.1257C9.36424 11.1345 9.59557 11.3759 9.59134 11.6636Z" fill="#F6921E"/>
<path d="M7.45971 12.1842C7.74742 12.1771 7.99146 12.4055 8.00351 12.6932C8.01589 12.9926 7.76925 13.2474 7.46949 13.2455C7.18146 13.2435 6.94557 13.0076 6.94296 12.7196C6.94003 12.4306 7.17104 12.1914 7.45971 12.1842Z" fill="#F6921E"/>
<path d="M10.6587 13.2453C10.3713 13.2509 10.1286 13.0205 10.1185 12.7328C10.1081 12.4314 10.3537 12.1805 10.6551 12.1841C10.9435 12.1877 11.1781 12.4242 11.1794 12.7126C11.1803 13 10.9461 13.2398 10.6587 13.2453Z" fill="#F6921E"/>
<path d="M22.822 17.5015C22.7461 17.9821 22.6819 18.4389 22.5962 18.8914C22.5796 18.9797 22.4929 19.1026 22.415 19.1247C20.7419 19.5962 19.075 20.0934 17.3876 20.5072C15.6428 20.935 13.9404 20.6522 12.2565 20.0813C11.092 19.6864 9.90896 19.3147 8.70602 19.0739C6.90976 18.7145 5.13076 18.9527 3.39706 19.53C3.32473 19.5541 3.25207 19.5763 3.09437 19.6265C2.9585 18.9126 2.82687 18.2212 2.6897 17.5018C9.42935 17.5015 16.1045 17.5015 22.822 17.5015Z" fill="#F6921E"/>
<path d="M31.6964 3.71528C31.2337 3.71202 30.7711 3.69573 30.3084 3.7218C30.0347 3.73483 29.8718 3.65011 29.7154 3.42204C29.1485 2.58141 28.5587 1.75708 27.9788 0.926233C27.2717 -0.0870762 26.48 -0.253245 25.4308 0.382109C24.7271 -0.103367 24.0168 -0.0968505 23.414 0.320203C22.9611 0.206165 22.5929 0.0399951 22.228 0.0465115C21.8663 0.0497698 21.5047 0.232231 21.0909 0.349527C20.3903 -0.0903341 19.7648 -0.132691 19.1946 0.323461C18.3833 0.968591 18.3442 1.77012 18.8459 2.6531H20.1893C20.549 3.16757 20.9094 3.68205 21.2688 4.19685C21.3896 4.36986 21.4636 4.54841 21.4867 4.73054C21.488 4.74032 21.491 4.75042 21.4916 4.76019C21.492 4.76508 21.4916 4.76997 21.492 4.77486C21.5066 4.96253 21.4662 5.15379 21.3613 5.34765C21.3307 5.40435 21.2968 5.45517 21.2606 5.50307C21.2492 5.51806 21.2372 5.53109 21.2254 5.5451C21.199 5.57671 21.1713 5.60668 21.1423 5.63405C21.1287 5.64708 21.1143 5.65947 21.1 5.67152C21.069 5.69759 21.0368 5.72105 21.0032 5.74255C20.9899 5.75135 20.9768 5.76047 20.9628 5.76862C20.9211 5.79273 20.8775 5.81325 20.8322 5.83117C20.8253 5.83378 20.8195 5.83736 20.8126 5.83997H17.5524C17.9793 7.65806 19.4292 8.58992 21.1006 8.49217C21.8794 8.44656 22.6646 8.47914 23.4466 8.48891C23.6877 8.49217 23.932 8.5215 24.1634 8.5834C26.6331 9.23179 29.0996 9.89321 31.5661 10.5514C32.0613 10.6817 32.3513 10.4699 32.3513 9.97141C32.3546 8.09793 32.3546 6.22118 32.3513 4.3477C32.3513 3.90426 32.1558 3.71854 31.6964 3.71528Z" fill="#831529"/>
</svg>
