<?xml version="1.0" standalone="no"?>
<!DOCTYPE svg PUBLIC "-//W3C//DTD SVG 20010904//EN"
 "http://www.w3.org/TR/2001/REC-SVG-20010904/DTD/svg10.dtd">
<svg version="1.0" xmlns="http://www.w3.org/2000/svg"
 width="590.000000pt" height="600.000000pt" viewBox="0 0 590.000000 600.000000"
 preserveAspectRatio="xMidYMid meet">
<metadata>
Created by potrace 1.16, written by Peter Selinger 2001-2019
</metadata>
<g transform="translate(0.000000,600.000000) scale(0.100000,-0.100000)"
fill="#000000" stroke="none">
<path d="M3990 5262 c-272 -97 -500 -180 -506 -184 -5 -4 -48 -106 -94 -227
l-84 -221 -95 0 c-53 0 -127 -5 -165 -10 -38 -6 -70 -9 -72 -7 -2 2 -15 42
-29 90 -25 86 -95 242 -101 222 -1 -5 -5 -32 -9 -60 -6 -40 -9 -46 -17 -31 -5
9 -7 28 -4 41 3 13 1 47 -5 76 -9 42 -22 64 -63 107 -49 53 -157 142 -171 142
-7 0 -2 -28 11 -73 5 -16 3 -17 -15 -8 -16 9 -21 21 -21 50 0 46 -15 61 -95
97 -57 25 -230 74 -262 74 -11 0 -8 -10 12 -36 15 -19 25 -37 23 -40 -3 -2
-19 -1 -36 2 -21 4 -34 15 -43 35 -18 46 -41 53 -148 45 -113 -8 -231 -26
-231 -36 0 -3 11 -17 25 -30 28 -27 32 -40 10 -40 -25 0 -17 -17 18 -38 31
-20 171 -156 201 -197 14 -19 15 -17 17 30 l2 50 7 -60 c5 -45 17 -75 46 -121
21 -34 47 -77 58 -95 17 -32 19 -33 27 -14 8 17 9 16 4 -5 -4 -19 36 -157 51
-178 1 -2 20 14 42 35 36 34 102 80 102 70 0 -2 -24 -20 -53 -40 -79 -54 -85
-70 -64 -170 9 -45 17 -94 17 -108 0 -36 8 -41 39 -21 l26 16 -27 -27 c-22
-20 -28 -35 -28 -67 0 -30 3 -39 13 -34 7 5 6 0 -3 -10 -13 -17 -16 -9 -26 84
-7 66 -16 105 -25 111 -20 13 -57 11 -119 -6 -214 -59 -329 -85 -383 -88 -34
-3 -48 -3 -32 0 61 9 204 43 325 77 68 20 143 36 167 36 38 0 43 3 43 23 0 46
-13 52 -118 55 -55 2 -161 -3 -237 -12 -76 -9 -156 -15 -179 -15 -35 2 -32 3
19 9 254 30 404 41 451 32 l52 -9 -10 31 c-5 17 -14 45 -19 61 -17 59 -31 68
-95 67 -32 0 -106 -10 -164 -21 -124 -25 -186 -26 -220 -5 -16 10 -18 13 -5 8
47 -17 112 -15 236 11 73 15 151 25 175 23 l42 -3 -40 78 c-63 121 -91 154
-140 168 -24 6 -80 9 -127 7 -56 -3 -76 -2 -60 4 13 5 65 8 116 6 103 -3 100
-9 28 72 -42 48 -156 150 -166 150 -3 0 -9 -42 -13 -92 -3 -51 -9 -121 -12
-154 l-6 -62 33 -10 c19 -6 54 -14 79 -17 68 -11 100 -31 100 -62 0 -35 -26
-52 -80 -53 -37 0 -54 7 -99 41 -29 22 -54 39 -56 37 -1 -2 -9 -30 -17 -63 -9
-33 -30 -105 -47 -160 -17 -55 -31 -108 -31 -117 0 -38 90 -36 254 7 111 29
136 31 136 10 0 -22 -50 -43 -132 -56 -72 -11 -216 -8 -250 6 -16 6 -18 1 -18
-35 0 -74 20 -121 57 -136 72 -30 194 -9 317 54 59 31 123 35 140 10 16 -26
-1 -48 -60 -78 -44 -23 -61 -25 -174 -25 -69 0 -147 3 -173 7 l-48 8 23 -29
c13 -16 37 -37 55 -47 l32 -18 -69 -37 c-79 -41 -124 -74 -170 -122 -17 -19
-49 -40 -70 -46 -22 -6 -47 -22 -58 -35 -14 -18 -22 -22 -35 -15 -41 24 -117
-60 -117 -128 0 -16 8 -45 18 -64 18 -36 18 -36 -5 -63 -29 -34 -29 -51 1 -80
21 -22 23 -31 19 -98 -5 -88 13 -132 68 -163 33 -19 35 -22 27 -55 -4 -19 -5
-60 -2 -90 l6 -55 -38 -25 c-50 -32 -95 -119 -97 -187 -2 -47 -2 -48 28 -47
17 1 45 7 62 15 31 13 34 12 63 -16 39 -38 35 -72 -14 -119 l-35 -32 -21 20
c-16 16 -24 18 -38 10 -13 -9 -17 -25 -17 -80 0 -38 4 -81 8 -95 7 -22 3 -29
-33 -53 -63 -42 -197 -174 -246 -243 -51 -71 -96 -165 -115 -243 -21 -84 -18
-339 5 -415 85 -285 370 -534 804 -701 110 -43 149 -53 138 -36 -9 16 33 71
60 78 29 8 126 -13 152 -32 12 -9 17 -27 17 -68 l0 -56 50 -10 c270 -56 486
-74 805 -67 338 7 544 35 822 111 492 135 866 385 1003 671 48 98 65 185 65
331 0 176 -44 323 -134 444 -63 83 -197 206 -315 286 -1 2 4 13 13 26 25 36
19 59 -29 113 -101 113 -63 127 85 30 47 -30 91 -53 98 -50 7 3 10 0 7 -5 -6
-9 8 -15 29 -11 5 1 31 -3 57 -8 62 -14 106 -4 126 25 36 55 -17 116 -144 167
-132 52 -196 85 -231 115 -66 58 -46 105 44 100 30 -2 54 -7 54 -12 0 -4 7 -5
16 -2 8 3 13 2 10 -3 -3 -5 10 -21 28 -35 37 -28 64 -37 30 -10 -18 14 -18 15
4 4 15 -7 21 -17 18 -26 -3 -9 -1 -12 4 -9 6 3 10 1 10 -6 0 -7 3 -9 7 -6 9
10 34 -14 26 -26 -3 -5 -1 -7 4 -4 6 4 21 -3 34 -14 13 -11 35 -29 48 -41 75
-64 206 -62 227 4 19 61 0 109 -54 137 -35 17 -57 23 -195 51 -92 19 -147 83
-102 120 30 25 118 23 218 -4 130 -36 161 -34 203 8 40 40 42 63 12 101 -39
50 -74 57 -188 40 -132 -20 -168 -19 -208 5 -27 17 -31 23 -22 39 14 27 80 48
190 60 172 19 253 58 310 148 28 44 41 113 22 113 -5 0 -55 -18 -113 -41 -205
-80 -435 -203 -603 -323 -43 -31 -80 -55 -83 -52 -6 5 157 118 258 179 111 66
288 153 412 202 59 23 108 46 109 51 1 22 -97 44 -179 40 -127 -6 -191 -40
-319 -171 -56 -58 -107 -105 -113 -105 -38 0 -7 75 79 195 102 142 129 220 95
284 -25 49 -77 55 -125 15 -44 -37 -83 -120 -121 -258 -38 -141 -69 -186 -125
-186 -27 0 -37 5 -43 22 -11 30 -2 59 48 153 48 92 58 134 41 176 -30 72 -116
67 -189 -10 -66 -69 -94 -201 -80 -366 12 -127 4 -191 -27 -222 -28 -28 -48
-29 -74 -3 -34 34 -27 111 21 237 49 129 54 191 19 228 -36 39 -95 28 -137
-25 -11 -12 -12 -10 -8 15 3 17 14 84 24 150 17 114 19 122 53 155 32 32 37
44 43 104 12 113 3 154 -44 198 -30 28 -43 49 -47 78 -15 90 -153 158 -391
192 -46 7 -83 15 -83 19 0 7 137 339 142 344 2 2 91 33 198 70 107 36 330 112
495 169 l300 102 3 37 c4 46 -32 87 -75 86 -15 0 -251 -80 -523 -177z m541
138 c10 -6 19 -21 19 -34 0 -25 4 -24 -757 -282 l-232 -79 -100 -245 c-99
-243 -100 -245 -131 -248 -27 -3 -31 -1 -26 15 4 10 50 132 104 272 l98 253
99 36 c55 19 280 100 500 178 220 78 401 143 403 143 2 1 12 -4 23 -9z m-2001
-363 c0 -97 -59 -204 -106 -195 -32 6 -41 53 -19 94 21 39 106 142 118 143 4
1 7 -18 7 -42z m165 -347 c-34 -53 -110 -127 -157 -151 -60 -31 -86 -7 -68 61
17 65 57 89 210 128 19 5 36 8 38 6 2 -1 -8 -21 -23 -44z m595 -100 c0 -5 -16
-10 -35 -10 -58 0 -105 -25 -105 -54 0 -35 34 -55 115 -69 111 -19 220 16 213
67 -2 12 -16 27 -31 34 -94 45 111 28 270 -23 92 -29 141 -58 163 -98 15 -27
14 -29 -22 -62 -163 -151 -896 -147 -1107 6 -46 33 -55 73 -23 102 31 28 125
66 204 82 136 29 358 44 358 25z m-595 -330 c31 -35 139 -80 258 -108 105 -25
126 -27 357 -27 216 0 257 3 344 22 167 37 265 99 266 168 1 18 3 17 25 -8 44
-50 27 -88 -60 -131 -115 -56 -310 -86 -565 -86 -328 0 -622 61 -712 147 -38
36 -35 64 9 103 l36 32 12 -46 c7 -25 20 -55 30 -66z m99 57 c21 -10 80 -29
131 -42 289 -74 725 -54 908 40 l48 25 -3 -32 c-5 -56 -103 -104 -271 -135
-129 -24 -435 -23 -572 1 -211 37 -335 100 -335 168 l0 30 28 -18 c15 -10 45
-27 66 -37z m-419 -157 c226 -58 385 -201 435 -389 l12 -45 -39 -32 c-68 -58
-205 -114 -276 -114 -22 0 -22 0 2 19 13 10 21 23 17 30 -4 6 -2 9 6 6 7 -3
29 8 48 24 l35 30 -65 -19 c-162 -49 -270 -65 -435 -65 -149 0 -166 2 -247 28
-106 35 -205 110 -232 176 -20 51 -21 140 -2 185 27 64 211 150 406 190 56 11
257 -3 335 -24z m386 -65 c340 -107 891 -95 1133 26 33 16 61 29 63 29 1 0 3
-9 3 -21 0 -52 -97 -103 -270 -140 -137 -30 -495 -38 -669 -15 -173 23 -287
53 -325 86 -17 15 -52 41 -78 59 -29 19 -48 40 -48 51 0 16 7 14 58 -16 31
-19 91 -45 133 -59z m-1278 -192 c-15 -38 -14 -125 3 -167 6 -16 4 -18 -19
-14 -15 3 -27 2 -27 -3 0 -13 42 -49 57 -49 8 0 38 -22 66 -49 29 -27 78 -65
111 -84 55 -33 57 -36 36 -47 -27 -14 -52 -6 -44 15 5 12 -1 11 -30 -6 l-36
-21 -36 21 c-41 25 -51 22 -32 -8 19 -30 61 -45 88 -31 17 9 28 7 65 -14 51
-30 68 -32 86 -9 9 11 10 14 2 9 -9 -5 -11 -2 -7 8 7 17 54 14 123 -7 l43 -13
-32 -37 c-18 -20 -39 -37 -48 -37 -8 0 -13 -3 -9 -6 13 -14 90 10 119 36 25
23 38 28 62 24 56 -10 59 -12 53 -43 -4 -20 -2 -31 8 -35 8 -3 15 -16 15 -30
0 -13 8 -34 18 -45 17 -22 17 -21 17 41 1 88 5 95 53 90 31 -3 42 -9 46 -25 5
-19 23 -33 75 -54 8 -4 4 7 -9 25 -35 47 -22 62 52 62 35 1 112 9 172 19 l109
18 37 -37 c37 -37 80 -52 114 -40 13 4 5 11 -28 27 -39 20 -86 67 -75 77 2 2
23 13 47 25 39 20 44 20 65 6 24 -17 65 -19 87 -5 13 8 12 10 -3 10 -10 0 -31
7 -47 15 l-29 15 31 45 c45 64 50 142 14 248 -32 94 -32 99 -3 95 13 -2 29
-16 40 -38 16 -33 18 -34 23 -12 11 39 37 20 59 -45 13 -37 13 -39 -23 -75
-20 -21 -30 -38 -23 -38 22 0 55 21 83 53 l26 32 13 -27 c8 -19 9 -38 3 -59
-9 -32 -15 -37 -68 -61 -45 -20 -44 -37 1 -31 32 4 45 0 72 -22 42 -36 38 -60
-17 -102 l-44 -33 31 0 c28 0 31 -3 31 -32 -1 -66 -63 -103 -154 -92 -52 6
-54 5 -67 -21 -10 -20 -29 -34 -64 -46 -63 -22 -106 -23 -152 -4 -50 21 -58
19 -39 -10 17 -25 16 -26 -18 -40 -60 -25 -126 -16 -126 17 0 17 -4 16 -37
-11 -27 -22 -48 -31 -73 -31 -31 1 -37 5 -55 43 -11 24 -28 44 -39 46 -19 3
-19 2 -3 -23 34 -50 11 -89 -60 -102 -51 -10 -98 12 -152 71 -42 47 -51 52
-62 39 -21 -25 -81 -46 -138 -47 -51 -2 -55 0 -93 43 -38 43 -40 44 -35 17 10
-61 -59 -43 -95 25 l-23 43 -3 -32 c-2 -18 -5 -33 -7 -33 -20 0 -57 28 -61 47
-7 26 -21 31 -26 9 -3 -12 -9 -12 -41 -1 -86 30 -112 96 -81 206 3 9 18 22 34
29 42 17 37 29 -11 27 -59 -3 -72 20 -36 63 29 34 38 83 13 74 -22 -8 -38 51
-26 97 10 38 45 73 62 63 5 -3 16 -24 25 -45 18 -47 28 -43 29 13 0 30 6 46
23 59 35 28 42 23 24 -18z m1952 -347 c50 -21 120 -91 145 -144 63 -132 -3
-299 -144 -363 -61 -28 -167 -26 -231 5 -123 57 -204 228 -145 303 11 14 20
39 20 55 0 58 78 129 168 155 53 15 137 10 187 -11z m975 -144 c0 -5 -15 -33
-33 -64 -36 -58 -44 -93 -19 -83 7 3 39 7 70 10 l57 4 -47 -8 c-84 -16 -145
-41 -184 -76 l-39 -34 40 5 40 4 -46 -13 c-55 -16 -87 -39 -156 -109 l-52 -53
72 0 c41 -1 81 -6 92 -14 l20 -13 -20 7 c-34 11 -122 18 -148 11 -31 -7 -76
-45 -118 -97 l-31 -39 27 10 c14 5 38 10 53 9 31 -1 22 -5 -30 -14 -21 -3 -51
-17 -68 -31 -16 -14 -30 -21 -30 -16 0 5 7 15 15 22 25 21 58 81 66 119 l7 36
1 -32 c1 -32 2 -31 94 63 106 110 123 138 136 225 l10 64 -4 -63 c-3 -35 -10
-72 -16 -83 -21 -41 -1 -27 83 53 54 53 98 106 119 145 34 63 39 70 39 55z
m-2799 -189 l37 -18 17 -113 c20 -125 14 -175 -20 -180 -32 -4 -43 10 -59 69
-17 66 -32 259 -21 259 5 0 25 -8 46 -17z m1118 -23 c-12 -8 -37 -29 -54 -46
-61 -56 -82 -193 -49 -318 24 -87 24 -175 0 -210 -13 -21 -20 -25 -26 -16 -5
7 -17 10 -30 7 -33 -9 -41 28 -49 223 -8 193 -20 241 -73 270 -25 14 -29 13
-48 -5 -23 -23 -25 -46 -15 -127 9 -65 -2 -88 -41 -88 -31 0 -40 21 -47 109
-3 40 -14 90 -24 110 l-18 37 57 -1 c45 0 61 5 80 22 17 16 28 19 38 13 28
-18 113 -11 154 13 30 16 56 22 104 22 60 0 62 -1 41 -15z m267 -122 c34 -32
44 -48 42 -68 -3 -21 -13 -28 -78 -51 -41 -14 -123 -50 -182 -79 -59 -30 -110
-51 -113 -48 -4 4 -9 24 -12 45 l-5 38 68 23 c110 38 224 124 224 168 0 21 7
18 56 -28z m-1490 -73 c23 -22 45 -51 49 -65 18 -62 78 -86 126 -51 15 11 34
19 41 16 78 -28 618 -65 658 -45 8 4 36 11 63 14 l47 7 0 -68 c0 -37 -4 -73
-8 -78 -4 -6 -31 -28 -60 -50 -29 -22 -73 -66 -98 -98 l-46 -58 -23 48 c-65
141 -187 202 -493 248 -89 14 -179 32 -200 40 -50 21 -108 79 -138 137 -27 54
-29 69 -12 86 10 10 17 7 32 -15 11 -15 39 -46 62 -68z m1434 -247 c22 -23 29
-111 10 -123 -5 -3 -10 -22 -10 -42 0 -20 -3 -33 -6 -30 -4 4 -20 -5 -36 -18
-40 -34 -48 -32 -48 15 0 37 2 40 28 40 15 0 34 5 42 10 11 7 6 10 -22 10 -33
0 -68 20 -68 39 0 4 12 18 26 32 15 13 33 39 40 57 8 17 16 32 19 32 2 0 13
-10 25 -22z m530 6 c0 -3 -5 -14 -10 -25 -14 -25 -5 -24 22 1 24 22 70 26 86
8 5 -7 12 -40 14 -73 l3 -60 -47 25 c-48 25 -53 39 -15 41 l22 0 -22 11 c-17
8 -28 7 -44 -4 -19 -12 -30 -12 -72 -1 -28 7 -80 16 -116 20 -80 8 -58 21 37
22 37 1 61 5 57 10 -3 6 3 14 12 20 19 11 73 15 73 5z m204 -18 c9 -13 7 -20
-7 -30 -15 -12 -16 -15 -2 -26 12 -10 21 -10 42 -1 14 7 54 15 87 18 105 9
167 -33 144 -98 -12 -35 -95 -113 -101 -96 -3 7 -6 5 -6 -5 -1 -26 26 -36 73
-27 22 4 76 10 118 14 64 6 82 4 103 -9 32 -21 65 -86 65 -127 0 -37 -33 -79
-62 -79 -24 0 -23 22 2 45 30 27 26 71 -10 107 -26 25 -36 29 -63 25 -120 -22
-158 -27 -204 -27 -60 0 -83 17 -83 60 0 22 13 40 58 79 48 43 55 53 46 68
-16 26 -76 28 -147 4 -33 -12 -71 -21 -84 -21 -45 0 -54 71 -17 128 17 26 32
25 48 -2z m-2261 -95 c16 -6 38 -11 51 -11 12 0 33 -11 45 -24 l23 -24 -38
-20 -38 -20 29 -6 c17 -3 43 -3 58 2 23 6 43 1 95 -26 37 -18 68 -34 70 -36 1
-2 -4 -22 -11 -45 -18 -50 -8 -52 35 -7 l33 34 83 -21 c58 -14 86 -26 94 -40
9 -17 8 -19 -6 -14 -10 4 -16 1 -16 -8 0 -8 9 -15 20 -15 11 0 20 -7 20 -15 0
-21 28 -75 39 -75 5 0 4 16 -1 35 -7 22 -8 46 -2 65 l9 31 145 4 c80 2 156 6
170 10 25 6 25 6 4 -10 -21 -16 -21 -16 -3 -82 14 -50 16 -70 7 -80 -8 -10
-14 -11 -22 -3 -12 12 -56 13 -75 1 -11 -7 -20 2 -37 37 -13 26 -30 56 -38 66
-27 34 -28 10 -2 -43 27 -53 33 -100 16 -132 -23 -42 -139 -16 -179 40 -31 43
-105 85 -136 77 -30 -8 -32 -31 -7 -76 16 -30 16 -32 -2 -45 -44 -33 -76 -8
-95 74 -12 55 -41 95 -71 99 -29 5 -40 -13 -40 -65 0 -47 -7 -50 -48 -29 -35
19 -64 51 -91 105 l-22 44 28 -6 28 -5 -24 19 c-29 23 -69 24 -115 3 -19 -9
-41 -14 -50 -11 -22 9 -20 49 4 90 11 18 23 55 27 82 6 45 5 48 -15 43 -22 -6
-32 13 -32 66 l0 30 28 -26 c15 -15 40 -32 55 -37z m1962 14 c107 -22 201 -73
271 -147 183 -192 317 -571 299 -844 -4 -75 -3 -111 8 -142 l14 -41 -27 14
c-35 18 -40 38 -40 156 0 185 -61 442 -149 633 -45 98 -122 184 -184 207 -39
14 -49 29 -19 29 25 1 -18 32 -93 69 -83 40 -128 51 -212 51 -85 0 -125 11
-78 21 53 12 138 9 210 -6z m-316 -86 c20 -8 22 -14 18 -42 -3 -17 -11 -102
-18 -187 -6 -85 -15 -159 -19 -163 -8 -9 -56 237 -65 342 l-7 73 33 -7 c19 -4
45 -12 58 -16z m-294 -38 c4 -24 2 -48 -5 -61 -8 -14 -10 -51 -6 -108 5 -70 4
-82 -5 -62 -7 14 -20 42 -30 62 -10 20 -23 65 -29 100 -6 35 -14 73 -17 86 -5
20 -2 22 40 22 45 0 45 0 52 -39z m194 -368 c-1 -364 -13 -359 -28 11 -10 237
-10 261 6 278 9 10 18 18 20 18 1 0 3 -138 2 -307z m-70 253 c4 -3 9 -38 10
-78 1 -40 6 -156 11 -258 5 -101 7 -186 6 -188 -2 -1 -24 2 -48 8 l-45 12 -17
201 c-9 111 -19 229 -23 261 l-6 59 52 -6 c28 -3 55 -8 60 -11z m1207 -7 c5
-8 -1 -10 -20 -7 -22 5 -26 2 -21 -13 4 -11 3 -19 -2 -19 -12 0 -43 -55 -43
-77 0 -10 -29 -44 -64 -75 -56 -50 -64 -55 -69 -38 -5 19 8 34 59 67 18 11 18
12 1 12 -10 1 -31 -6 -47 -14 -29 -15 -30 -15 -45 16 -9 17 -15 33 -13 35 3 2
20 -1 39 -6 46 -14 81 -5 114 30 34 35 28 38 -17 10 -37 -23 -80 -28 -60 -8
20 20 14 28 -12 17 -37 -17 -91 -3 -104 27 -7 14 -12 26 -12 27 0 1 21 0 46
-2 30 -2 42 -6 33 -12 -28 -17 1 -20 36 -3 33 15 133 40 177 43 9 0 20 -4 24
-10z m-1467 -56 c31 -125 94 -414 90 -417 -3 -3 -24 0 -47 6 -36 9 -43 15 -51
47 -19 69 -91 373 -91 382 0 7 26 13 72 18 12 1 20 -10 27 -36z m548 8 l21
-18 -39 -164 c-79 -327 -71 -304 -100 -307 l-27 -3 10 48 c13 62 75 354 89
416 6 26 14 47 17 47 4 -1 17 -9 29 -19z m61 -244 l-63 -247 -31 0 -32 0 26
108 c87 372 84 364 122 377 19 7 36 11 38 10 1 -1 -26 -113 -60 -248z m208 80
c2 -2 -19 -68 -46 -147 -28 -79 -50 -145 -50 -146 0 -5 -102 -26 -106 -21 -3
3 20 82 51 175 l56 170 46 -14 c26 -8 48 -15 49 -17z m-980 -97 c13 -47 23
-90 21 -96 -1 -8 -16 -7 -49 3 -47 13 -48 14 -68 81 -11 37 -23 75 -26 85 -5
16 0 18 47 15 l52 -3 23 -85z m-717 38 c26 -24 51 -38 68 -38 31 0 73 35 73
62 0 26 12 22 39 -13 33 -42 71 -59 131 -59 55 0 78 10 126 53 23 21 34 25 39
16 5 -7 1 -17 -9 -24 -15 -11 -15 -16 -1 -48 30 -71 33 -70 -137 -65 l-153 5
-117 46 c-93 36 -208 92 -208 100 0 1 24 2 54 2 47 0 57 -4 95 -37z m2495 20
c10 -14 20 -17 39 -13 19 5 29 1 41 -16 18 -26 21 -59 6 -59 -5 0 -10 -5 -10
-11 0 -6 8 -8 19 -4 24 7 45 -26 36 -55 -3 -10 -1 -21 5 -25 5 -3 10 -19 10
-34 0 -32 -30 -47 -62 -30 -12 6 -25 6 -38 -1 -14 -8 -26 -8 -40 0 -15 8 -28
7 -53 -4 -29 -13 -57 -19 -141 -29 -17 -2 -37 -14 -48 -30 -11 -15 -23 -27
-27 -27 -10 0 -45 164 -45 208 1 36 17 53 49 50 12 0 42 19 73 49 51 48 55 50
112 50 49 1 63 -3 74 -19z m-739 -240 c-2 -7 -13 -68 -25 -136 -16 -90 -27
-125 -39 -132 -25 -13 -207 -58 -268 -66 -48 -6 -55 -4 -85 21 -54 45 -106 65
-178 65 -86 0 -130 -13 -187 -57 l-47 -36 -70 13 c-79 14 -256 67 -271 81 -10
10 -76 249 -68 249 2 0 20 -8 41 -19 93 -47 328 -75 627 -75 209 0 253 3 345
23 58 12 132 35 165 51 33 15 61 29 62 29 1 1 1 -5 -2 -11z m-485 -293 c19
-10 47 -31 61 -46 l27 -29 93 16 c52 9 129 26 172 39 79 23 103 13 31 -12 -44
-16 -265 -63 -294 -63 -11 0 -37 16 -57 35 -76 71 -181 83 -284 32 -27 -13
-49 -20 -49 -16 0 10 63 48 98 60 43 14 163 4 202 -16z m387 -237 c-3 -13 -11
-49 -17 -81 -10 -50 -17 -61 -48 -82 -54 -36 -142 -63 -270 -85 -138 -24 -219
-25 -343 -4 -98 17 -233 63 -269 92 -13 10 -29 45 -40 85 -21 75 -20 77 50 52
110 -39 261 -59 440 -59 198 0 268 12 402 67 102 42 101 42 95 15z"/>
<path d="M0 115 l0 -115 2950 0 2950 0 0 115 0 115 -2950 0 -2950 0 0 -115z"/>
</g>
</svg>
