<svg width="32" height="25" viewBox="0 0 32 25" fill="none" xmlns="http://www.w3.org/2000/svg">
<path d="M17.7148 4.52425C17.6519 4.58294 17.5695 4.61888 17.4599 4.61978C16.4974 4.62667 15.5349 4.63356 14.5724 4.64044C14.3175 4.64224 14.0605 4.69824 13.8054 4.66979C13.529 4.63895 13.4295 4.45716 13.3828 4.19991C13.2208 3.31195 12.8614 2.39015 13.0923 1.48123C13.4113 0.226706 14.7712 0 15.9275 0C16.9532 0 17.7687 0.395014 18.0993 1.28956C18.3826 2.05563 18.1493 2.98432 17.9723 3.75069C17.9166 3.99087 17.8981 4.35354 17.7148 4.52425Z" fill="#F6921E"/>
<path d="M29.6452 18.233C29.6452 19.109 29.5637 19.9667 29.4068 20.7969C29.1516 22.1649 28.6952 23.4608 28.0681 24.6533C27.2781 24.6488 26.4881 24.6533 25.698 24.6533C18.3108 24.6533 10.9253 24.6518 3.538 24.6596C2.90939 23.4653 2.45118 22.1679 2.19603 20.7999C2.0391 19.9682 1.95764 19.1105 1.95764 18.233C1.95764 10.5876 8.15508 4.38867 15.802 4.38867C23.4474 4.38867 29.6452 10.5876 29.6452 18.233Z" fill="#831529"/>
<path d="M32 22.3599C32 22.8579 31.811 23.1421 31.4696 23.376C30.8994 23.7665 30.3076 24.1292 29.7144 24.4874C29.5023 24.6164 29.2639 24.6656 28.9995 24.6611C28.6889 24.6566 28.3784 24.6533 28.0681 24.6533C27.2781 24.6488 26.4881 24.6533 25.698 24.6533C18.3108 24.6533 10.9253 24.6518 3.538 24.6596H3.12592C2.62938 24.6596 2.21131 24.5718 1.80401 24.246C1.38594 23.9094 0.874128 23.694 0.414426 23.4068C0.148488 23.2394 -0.0222155 23.0118 0.00234187 22.6522C0.0346857 22.1925 0.000844332 21.7301 0.0161178 21.2704C0.0283965 20.9185 0.123631 20.8214 0.472526 20.8107C1.03525 20.7954 1.59767 20.8029 2.1601 20.7999H2.19543C11.2658 20.7984 20.3361 20.7969 29.4065 20.7969H29.8446C30.3304 20.7999 30.8162 20.7954 31.3019 20.8077C31.7508 20.8199 31.9766 21.0565 31.9904 21.5162C31.9982 21.7971 32 22.0939 32 22.3599Z" fill="#F6921E"/>
<path d="M15.6786 15.9558C15.5747 16.0774 15.4792 16.1843 15.389 16.2957C14.5876 17.2873 13.7907 18.2828 12.9839 19.2695C12.8464 19.4379 12.6844 19.5981 12.5038 19.7164C12.2331 19.894 11.9447 19.882 11.6883 19.6625C11.4236 19.4355 11.3463 19.1513 11.5033 18.8383C11.5949 18.6553 11.7192 18.4813 11.8581 18.3304C14.4747 15.4907 17.0925 12.6516 19.7252 9.82693C19.8674 9.6742 20.1744 9.54003 20.3493 9.59035C20.5293 9.64186 20.7261 9.91468 20.7632 10.1183C20.8129 10.3921 20.7788 10.7185 20.6707 10.9763C20.435 11.5379 20.2023 12.1254 19.839 12.604C18.9217 13.8124 17.9421 14.9744 16.9673 16.1382C16.6322 16.5383 16.3596 16.5254 15.958 16.1843C15.8748 16.1136 15.7894 16.0462 15.6786 15.9558Z" fill="#F6921E"/>
<path d="M14.7314 14.1434C14.5176 13.8311 14.3591 13.5669 14.1645 13.3327C14.0914 13.2447 13.9228 13.1674 13.8165 13.1872C13.1477 13.3106 12.6434 13.0806 12.2505 12.5427C11.715 11.8096 11.1718 11.0819 10.6288 10.3541C10.4779 10.1517 10.3572 9.93514 10.6085 9.74587C10.8561 9.55929 11.0346 9.72071 11.187 9.92915C11.5779 10.464 11.9654 11.0025 12.3781 11.5203C12.4589 11.6215 12.6898 11.7206 12.7776 11.676C12.995 11.5652 12.862 11.3888 12.7575 11.2478C12.3631 10.7153 11.9681 10.1831 11.5719 9.65243C11.4206 9.44998 11.3098 9.23106 11.5569 9.04149C11.8121 8.84593 11.984 9.02951 12.1322 9.23016C12.497 9.72371 12.8587 10.219 13.2301 10.7075C13.3544 10.8707 13.4706 11.1747 13.7314 10.971C13.9923 10.7674 13.7144 10.5778 13.5988 10.4152C13.2433 9.91538 12.8737 9.42543 12.5063 8.93398C12.3613 8.73992 12.2637 8.52788 12.4901 8.35209C12.73 8.16581 12.9177 8.30777 13.0732 8.5201C13.632 9.28197 14.1974 10.0391 14.7563 10.8009C15.1162 11.2918 15.1743 11.8216 14.8766 12.3546C14.7652 12.5541 14.7811 12.6787 14.9237 12.8365C15.0869 13.0171 15.2288 13.2168 15.4043 13.4394C15.1845 13.6691 14.977 13.8862 14.7314 14.1434Z" fill="#F6921E"/>
<path d="M16.8199 17.2318C17.1664 16.9589 17.4797 16.7125 17.8427 16.4268C18.4222 17.1722 19.0286 17.9062 19.5791 18.6803C19.8399 19.0472 19.7291 19.4305 19.4134 19.657C19.0756 19.8995 18.6794 19.8615 18.3787 19.4614C17.828 18.7286 17.3249 17.9595 16.8199 17.2318Z" fill="#F6921E"/>
</svg>
