<svg width="54" height="54" viewBox="0 0 54 54" fill="none" xmlns="http://www.w3.org/2000/svg">
<circle cx="27" cy="27" r="27" fill="#FCD9B0"/>
<path d="M34.8947 41.0001H16.5789C16.1741 41.0001 15.7859 40.8392 15.4997 40.553C15.2134 40.2668 15.0526 39.8785 15.0526 39.4737C15.0526 39.0689 15.2134 38.6807 15.4997 38.3945C15.7859 38.1082 16.1741 37.9474 16.5789 37.9474H34.8947C36.1091 37.9474 37.2738 37.465 38.1325 36.6063C38.9913 35.7476 39.4737 34.5829 39.4737 33.3685V21.1579C39.4737 20.7531 39.6345 20.3649 39.9207 20.0787C40.207 19.7924 40.5952 19.6316 41 19.6316C41.4048 19.6316 41.793 19.7924 42.0793 20.0787C42.3655 20.3649 42.5263 20.7531 42.5263 21.1579V33.3685C42.5263 35.3925 41.7223 37.3336 40.2911 38.7648C38.8599 40.196 36.9188 41.0001 34.8947 41.0001ZM33.3684 13.5264H15.0526C14.243 13.5264 13.4666 13.848 12.8941 14.4205C12.3216 14.9929 12 15.7694 12 16.579V31.8422C12 32.6518 12.3216 33.4282 12.8941 34.0007C13.4666 34.5732 14.243 34.8948 15.0526 34.8948H33.3684C34.178 34.8948 34.9545 34.5732 35.527 34.0007C36.0994 33.4282 36.4211 32.6518 36.4211 31.8422V16.579C36.4211 15.7694 36.0994 14.9929 35.527 14.4205C34.9545 13.848 34.178 13.5264 33.3684 13.5264Z" fill="#831529"/>
<path d="M35.9784 26.5764L31.5216 22.1043C31.379 21.9628 31.2098 21.8509 31.0239 21.775C30.8379 21.699 30.6388 21.6605 30.4379 21.6617C30.237 21.6605 30.0379 21.699 29.852 21.775C29.666 21.8509 29.4969 21.9628 29.3542 22.1043L26.1032 25.3554L21.8753 21.158C21.7327 21.0165 21.5635 20.9046 21.3776 20.8287C21.1916 20.7527 20.9925 20.7142 20.7916 20.7154C20.5907 20.7142 20.3916 20.7527 20.2056 20.8287C20.0197 20.9046 19.8505 21.0165 19.7079 21.158L12.4427 28.3775C12.3012 28.5201 12.1893 28.6892 12.1133 28.8752C12.0374 29.0611 11.9989 29.2603 12 29.4611V31.8422C12 32.6518 12.3216 33.4283 12.8941 34.0007C13.4666 34.5732 14.243 34.8948 15.0527 34.8948H33.3684C34.1781 34.8948 34.9545 34.5732 35.527 34.0007C36.0995 33.4283 36.4211 32.6518 36.4211 31.8422V27.6601C36.4222 27.4592 36.3837 27.2601 36.3078 27.0741C36.2318 26.8882 36.1199 26.719 35.9784 26.5764Z" fill="#F6921E"/>
</svg>
