<svg width="31" height="28" viewBox="0 0 31 28" fill="none" xmlns="http://www.w3.org/2000/svg">
<path d="M22.8947 28.0001H4.57895C4.17414 28.0001 3.78592 27.8392 3.49968 27.553C3.21344 27.2668 3.05263 26.8785 3.05263 26.4737C3.05263 26.0689 3.21344 25.6807 3.49968 25.3945C3.78592 25.1082 4.17414 24.9474 4.57895 24.9474H22.8947C24.1091 24.9474 25.2738 24.465 26.1325 23.6063C26.9913 22.7476 27.4737 21.5829 27.4737 20.3685V8.15795C27.4737 7.75314 27.6345 7.36492 27.9207 7.07868C28.207 6.79244 28.5952 6.63163 29 6.63163C29.4048 6.63163 29.793 6.79244 30.0793 7.07868C30.3655 7.36492 30.5263 7.75314 30.5263 8.15795V20.3685C30.5263 22.3925 29.7223 24.3336 28.2911 25.7648C26.8599 27.196 24.9188 28.0001 22.8947 28.0001ZM21.3684 0.526367H3.05263C2.24302 0.526367 1.46657 0.847983 0.894095 1.42046C0.321615 1.99294 0 2.76939 0 3.579V18.8422C0 19.6518 0.321615 20.4282 0.894095 21.0007C1.46657 21.5732 2.24302 21.8948 3.05263 21.8948H21.3684C22.178 21.8948 22.9545 21.5732 23.527 21.0007C24.0994 20.4282 24.4211 19.6518 24.4211 18.8422V3.579C24.4211 2.76939 24.0994 1.99294 23.527 1.42046C22.9545 0.847983 22.178 0.526367 21.3684 0.526367Z" fill="#831529"/>
<path d="M23.9784 13.5759L19.5216 9.10382C19.379 8.96236 19.2098 8.85044 19.0239 8.77448C18.8379 8.69853 18.6388 8.66002 18.4379 8.66118C18.237 8.66002 18.0379 8.69853 17.852 8.77448C17.666 8.85044 17.4969 8.96236 17.3542 9.10382L14.1032 12.3549L9.87529 8.1575C9.73267 8.01604 9.56353 7.90412 9.37757 7.82817C9.1916 7.75221 8.99248 7.71371 8.7916 7.71487C8.59073 7.71371 8.3916 7.75221 8.20564 7.82817C8.01968 7.90412 7.85054 8.01604 7.70792 8.1575L0.442657 15.377C0.301196 15.5196 0.189279 15.6887 0.113322 15.8747C0.0373655 16.0607 -0.00113585 16.2598 2.55113e-05 16.4607V18.8417C2.55113e-05 19.6513 0.321641 20.4278 0.89412 21.0002C1.4666 21.5727 2.24305 21.8943 3.05266 21.8943H21.3684C22.1781 21.8943 22.9545 21.5727 23.527 21.0002C24.0995 20.4278 24.4211 19.6513 24.4211 18.8417V14.6596C24.4222 14.4587 24.3837 14.2596 24.3078 14.0736C24.2318 13.8877 24.1199 13.7185 23.9784 13.5759Z" fill="#F6921E"/>
</svg>
