<svg width="18" height="18" viewBox="0 0 18 18" fill="none" xmlns="http://www.w3.org/2000/svg">
<path d="M18 9.89961V11.6996C18 11.9383 17.9052 12.1672 17.7364 12.336C17.5676 12.5048 17.3387 12.5996 17.1 12.5996H15.3C15.0613 12.5996 14.8324 12.5048 14.6636 12.336C14.4948 12.1672 14.4 11.9383 14.4 11.6996V9.89961C14.4 9.66092 14.4948 9.432 14.6636 9.26322C14.8324 9.09444 15.0613 8.99961 15.3 8.99961H17.1C17.3387 8.99961 17.5676 9.09444 17.7364 9.26322C17.9052 9.432 18 9.66092 18 9.89961ZM17.1 3.59961H15.3C15.0613 3.59961 14.8324 3.69443 14.6636 3.86321C14.4948 4.032 14.4 4.26092 14.4 4.49961V6.29961C14.4 6.53831 14.4948 6.76723 14.6636 6.93601C14.8324 7.10479 15.0613 7.19961 15.3 7.19961H17.1C17.3387 7.19961 17.5676 7.10479 17.7364 6.93601C17.9052 6.76723 18 6.53831 18 6.29961V4.49961C18 4.26092 17.9052 4.032 17.7364 3.86321C17.5676 3.69443 17.3387 3.59961 17.1 3.59961Z" fill="#F6921E"/>
<path d="M14.4 0H1.8C0.805888 0 0 0.805888 0 1.8V16.2C0 17.1941 0.805888 18 1.8 18H14.4C15.3941 18 16.2 17.1941 16.2 16.2V1.8C16.2 0.805888 15.3941 0 14.4 0Z" fill="#831529"/>
<path d="M10.26 8.82C10.6105 8.35264 10.8 7.7842 10.8 7.2C10.8 6.48392 10.5155 5.79716 10.0092 5.29081C9.50284 4.78446 8.81609 4.5 8.1 4.5C7.38392 4.5 6.69716 4.78446 6.19081 5.29081C5.68446 5.79716 5.4 6.48392 5.4 7.2C5.4 7.7842 5.58948 8.35264 5.94 8.82C5.4929 9.15533 5.13 9.59016 4.88006 10.09C4.63012 10.5899 4.5 11.1411 4.5 11.7V12.6C4.5 12.8387 4.59482 13.0676 4.7636 13.2364C4.93239 13.4052 5.16131 13.5 5.4 13.5H10.8C11.0387 13.5 11.2676 13.4052 11.4364 13.2364C11.6052 13.0676 11.7 12.8387 11.7 12.6V11.7C11.7 11.1411 11.5699 10.5899 11.3199 10.09C11.07 9.59016 10.7071 9.15533 10.26 8.82Z" fill="#F6921E"/>
</svg>
