<svg width="32" height="25" viewBox="0 0 32 25" fill="none" xmlns="http://www.w3.org/2000/svg">
<path d="M28.2 0H3.80002C2.95779 0 2.27502 0.682766 2.27502 1.525V22.875C2.27502 23.7172 2.95779 24.4 3.80002 24.4H28.2C29.0423 24.4 29.725 23.7172 29.725 22.875V1.525C29.725 0.682766 29.0423 0 28.2 0Z" fill="#831529"/>
<path d="M12.95 15.25C12.95 15.6545 12.7893 16.0423 12.5033 16.3283C12.2173 16.6143 11.8295 16.775 11.425 16.775H8.375C7.97054 16.775 7.58266 16.6143 7.29666 16.3283C7.01067 16.0423 6.85 15.6545 6.85 15.25C6.85 14.8455 7.01067 14.4577 7.29666 14.1717C7.58266 13.8857 7.97054 13.725 8.375 13.725H11.425C11.8295 13.725 12.2173 13.8857 12.5033 14.1717C12.7893 14.4577 12.95 14.8455 12.95 15.25ZM29.725 0H2.275C1.87054 0 1.48266 0.160669 1.19666 0.446662C0.910669 0.732655 0.75 1.12054 0.75 1.525C0.75 1.92946 0.910669 2.31734 1.19666 2.60334C1.48266 2.88933 1.87054 3.05 2.275 3.05H17.525V7.625H2.275V10.675H17.525V24.4H20.575V3.05H29.725C30.1295 3.05 30.5173 2.88933 30.8033 2.60334C31.0893 2.31734 31.25 1.92946 31.25 1.525C31.25 1.12054 31.0893 0.732655 30.8033 0.446662C30.5173 0.160669 30.1295 0 29.725 0Z" fill="#F6921E"/>
</svg>
