<svg width="14" height="20" viewBox="0 0 14 20" fill="none" xmlns="http://www.w3.org/2000/svg">
<path d="M7 0C5.14348 0 3.36301 0.631912 2.05025 1.75672C0.737498 2.88153 0 4.4071 0 5.99783C0 10.3562 5.92667 15.4844 6.17167 15.7043C6.28012 15.798 6.40916 15.8724 6.55133 15.9231C6.6935 15.9739 6.84599 16 7 16C7.15401 16 7.3065 15.9739 7.44867 15.9231C7.59084 15.8724 7.71988 15.798 7.82833 15.7043C8.07333 15.4844 14 10.3562 14 5.99783C14 4.4071 13.2625 2.88153 11.9497 1.75672C10.637 0.631912 8.85651 0 7 0Z" fill="#831529"/>
<path d="M7 20C3.58002 20 1.00003 18.7516 1.00003 17.0968C0.99835 16.8506 1.05963 16.6068 1.18003 16.3806C1.22822 16.2523 1.30898 16.1334 1.41719 16.0315C1.52539 15.9296 1.65867 15.847 1.80858 15.7889C1.95848 15.7307 2.12173 15.6984 2.28797 15.6938C2.4542 15.6893 2.61979 15.7127 2.77422 15.7625C2.92866 15.8123 3.06856 15.8875 3.18506 15.9832C3.30156 16.079 3.3921 16.1932 3.45095 16.3187C3.50979 16.4441 3.53565 16.5781 3.52688 16.712C3.51812 16.846 3.47491 16.977 3.40002 17.0968C3.40002 17.271 4.60001 18.0645 7 18.0645C9.39999 18.0645 10.6 17.2903 10.6 17.0968C10.4806 16.8605 10.4816 16.5958 10.603 16.3602C10.7243 16.1246 10.9561 15.9372 11.248 15.8387C11.3952 15.7901 11.5529 15.7655 11.712 15.7665C11.8711 15.7675 12.0283 15.7939 12.1746 15.8444C12.3209 15.8948 12.4533 15.9682 12.5641 16.0602C12.6749 16.1523 12.7618 16.2612 12.82 16.3806C12.9404 16.6068 13.0017 16.8506 13 17.0968C13 18.7516 10.42 20 7 20ZM7 5C6.644 5 6.29599 5.08514 5.99998 5.24464C5.70397 5.40415 5.47326 5.63086 5.33703 5.8961C5.20079 6.16135 5.16514 6.45322 5.2346 6.73481C5.30405 7.01639 5.47548 7.27505 5.72721 7.47806C5.97895 7.68107 6.29967 7.81932 6.64884 7.87533C6.998 7.93134 7.35992 7.9026 7.68883 7.79273C8.01773 7.68286 8.29885 7.4968 8.49664 7.25809C8.69442 7.01937 8.79999 6.73871 8.79999 6.45161C8.79999 6.06662 8.61035 5.6974 8.27279 5.42517C7.93522 5.15294 7.47739 5 7 5Z" fill="#F6921E"/>
</svg>
