<svg width="16" height="16" viewBox="0 0 16 16" fill="none" xmlns="http://www.w3.org/2000/svg">
<path d="M15.2007 4.79492H0.800035C0.587853 4.79492 0.38436 4.87921 0.234325 5.02925C0.0842891 5.17928 0 5.38277 0 5.59496V14.3953C0 14.8197 0.168578 15.2267 0.46865 15.5268C0.768721 15.8268 1.17571 15.9954 1.60007 15.9954H14.4006C14.825 15.9954 15.232 15.8268 15.5321 15.5268C15.8321 15.2267 16.0007 14.8197 16.0007 14.3953V5.59496C16.0007 5.38277 15.9164 5.17928 15.7664 5.02925C15.6163 4.87921 15.4128 4.79492 15.2007 4.79492Z" fill="#831529"/>
<path d="M15.6567 4.93863L8.89639 0.274424C8.63179 0.0955745 8.31972 0 8.00035 0C7.68098 0 7.36891 0.0955745 7.10431 0.274424L0.344015 4.93863C0.238038 5.01215 0.151407 5.1102 0.091507 5.22443C0.0316065 5.33866 0.000212256 5.46568 0 5.59466C0.00198786 5.72507 0.0358296 5.85302 0.0985778 5.96736C0.161326 6.0817 0.251078 6.17897 0.360016 6.25069L7.12031 10.7549C7.3796 10.932 7.68632 11.0268 8.00035 11.0268C8.31438 11.0268 8.62109 10.932 8.88039 10.7549L15.6407 6.25069C15.7496 6.17897 15.8394 6.0817 15.9021 5.96736C15.9649 5.85302 15.9987 5.72507 16.0007 5.59466C16.0005 5.46568 15.9691 5.33866 15.9092 5.22443C15.8493 5.1102 15.7627 5.01215 15.6567 4.93863Z" fill="#F6921E"/>
</svg>
