<svg width="36" height="36" viewBox="0 0 36 36" fill="none" xmlns="http://www.w3.org/2000/svg">
<path d="M16.2001 21.6V34.2C16.2001 34.6774 16.0104 35.1352 15.6729 35.4728C15.3353 35.8104 14.8774 36 14.4001 36H1.80006C1.32267 36 0.864834 35.8104 0.527269 35.4728C0.189703 35.1352 6.10352e-05 34.6774 6.10352e-05 34.2V21.6C6.10352e-05 21.1226 0.189703 20.6648 0.527269 20.3272C0.864834 19.9896 1.32267 19.8 1.80006 19.8H14.4001C14.8774 19.8 15.3353 19.9896 15.6729 20.3272C16.0104 20.6648 16.2001 21.1226 16.2001 21.6ZM34.2001 0H21.6001C21.1227 0 20.6648 0.189642 20.3273 0.527208C19.9897 0.864773 19.8001 1.32261 19.8001 1.8V14.4C19.8001 14.8774 19.9897 15.3352 20.3273 15.6728C20.6648 16.0104 21.1227 16.2 21.6001 16.2H34.2001C34.6774 16.2 35.1353 16.0104 35.4729 15.6728C35.8104 15.3352 36.0001 14.8774 36.0001 14.4V1.8C36.0001 1.32261 35.8104 0.864773 35.4729 0.527208C35.1353 0.189642 34.6774 0 34.2001 0Z" fill="#F6921E"/>
<path d="M16.2001 1.8V14.4C16.2001 14.8774 16.0104 15.3352 15.6729 15.6728C15.3353 16.0104 14.8774 16.2 14.4001 16.2H1.80006C1.32267 16.2 0.864834 16.0104 0.527269 15.6728C0.189703 15.3352 6.10352e-05 14.8774 6.10352e-05 14.4V1.8C6.10352e-05 1.32261 0.189703 0.864773 0.527269 0.527208C0.864834 0.189642 1.32267 0 1.80006 0H14.4001C14.8774 0 15.3353 0.189642 15.6729 0.527208C16.0104 0.864773 16.2001 1.32261 16.2001 1.8ZM34.2001 19.8H21.6001C21.1227 19.8 20.6648 19.9896 20.3273 20.3272C19.9897 20.6648 19.8001 21.1226 19.8001 21.6V34.2C19.8001 34.6774 19.9897 35.1352 20.3273 35.4728C20.6648 35.8104 21.1227 36 21.6001 36H34.2001C34.6774 36 35.1353 35.8104 35.4729 35.4728C35.8104 35.1352 36.0001 34.6774 36.0001 34.2V21.6C36.0001 21.1226 35.8104 20.6648 35.4729 20.3272C35.1353 19.9896 34.6774 19.8 34.2001 19.8Z" fill="#831529"/>
</svg>
