<svg width="36" height="36" viewBox="0 0 36 36" fill="none" xmlns="http://www.w3.org/2000/svg">
<path d="M15.2 21.6V34.2C15.2 34.4122 15.1157 34.6157 14.9657 34.7657C14.8157 34.9157 14.6122 35 14.4 35H1.8C1.58782 35 1.38434 34.9157 1.23432 34.7657C1.08429 34.6157 1 34.4122 1 34.2V21.6C1 21.3878 1.08428 21.1843 1.23432 21.0343C1.38434 20.8843 1.58783 20.8 1.8 20.8H14.4C14.6122 20.8 14.8157 20.8843 14.9657 21.0343C15.1157 21.1843 15.2 21.3878 15.2 21.6ZM21.6 1H34.2C34.4122 1 34.6157 1.08429 34.7657 1.23432C34.9157 1.38434 35 1.58782 35 1.8V14.4C35 14.6122 34.9157 14.8157 34.7657 14.9657C34.6157 15.1157 34.4122 15.2 34.2 15.2H21.6C21.3878 15.2 21.1843 15.1157 21.0343 14.9657C20.8843 14.8157 20.8 14.6122 20.8 14.4V1.8C20.8 1.58783 20.8843 1.38434 21.0343 1.23432C21.1843 1.08428 21.3878 1 21.6 1Z" stroke="#F6921E" stroke-width="2"/>
<path d="M15.2 1.8V14.4C15.2 14.6122 15.1157 14.8157 14.9657 14.9657C14.8157 15.1157 14.6122 15.2 14.4 15.2H1.8C1.58783 15.2 1.38434 15.1157 1.23431 14.9657C1.08429 14.8157 1 14.6122 1 14.4V1.8C1 1.58783 1.08429 1.38434 1.23431 1.23431C1.38434 1.08429 1.58783 1 1.8 1H14.4C14.6122 1 14.8157 1.08429 14.9657 1.23431C15.1157 1.38434 15.2 1.58783 15.2 1.8ZM21.6 20.8H34.2C34.4122 20.8 34.6157 20.8843 34.7657 21.0343C34.9157 21.1843 35 21.3878 35 21.6V34.2C35 34.4122 34.9157 34.6157 34.7657 34.7657C34.6157 34.9157 34.4122 35 34.2 35H21.6C21.3878 35 21.1843 34.9157 21.0343 34.7657C20.8843 34.6157 20.8 34.4122 20.8 34.2V21.6C20.8 21.3878 20.8843 21.1843 21.0343 21.0343C21.1843 20.8843 21.3878 20.8 21.6 20.8Z" stroke="#831529" stroke-width="2"/>
</svg>
