<svg width="43" height="57" viewBox="0 0 43 57" fill="none" xmlns="http://www.w3.org/2000/svg">
<path d="M21.938 56.1448C21.9945 56.1404 22.0505 56.1355 22.107 56.1311C22.2152 55.8434 22.3305 55.558 22.4304 55.2676C23.8588 51.1157 25.2966 46.967 26.6992 42.8063C26.8936 42.2305 27.1648 41.9258 27.7692 41.7397C37.5113 38.7329 43.7203 29.0188 42.3423 18.9857C40.7459 7.35945 29.9629 -0.730818 18.3993 1.02097C7.30443 2.70193 -0.501472 12.8877 0.727687 24.0791C1.67742 32.7271 7.91215 39.9034 16.3697 42.0515C16.9165 42.1904 17.2003 42.4325 17.3847 42.9765C18.7956 47.1345 20.2416 51.2803 21.6772 55.4295C21.7601 55.6689 21.8507 55.906 21.938 56.1448Z" fill="white"/>
<path d="M21.9467 56.1256C21.9281 56.1091 21.9149 56.0866 21.905 56.0641C21.8765 55.9993 21.8578 55.9307 21.8342 55.8642C21.7958 55.7566 21.7579 55.6485 21.7195 55.5409C21.6432 55.3251 21.5674 55.1094 21.4911 54.8937C21.4153 54.6779 21.3396 54.4622 21.2644 54.2464C21.1891 54.0307 21.1139 53.8144 21.0387 53.5986C20.9635 53.3823 20.8889 53.1666 20.8137 52.9503C20.7384 52.734 20.6643 52.5182 20.5897 52.3019C20.515 52.0856 20.4403 51.8693 20.3657 51.6536C20.291 51.4378 20.2169 51.221 20.1423 51.0047C20.0676 50.7884 19.9935 50.5721 19.9188 50.3558C19.8442 50.1395 19.7695 49.9232 19.6954 49.7075C19.6399 49.5477 19.585 49.3874 19.5296 49.2277C18.8099 47.1454 18.0929 45.062 17.3853 42.9759C17.2008 42.4319 16.9176 42.1898 16.3702 42.0509C7.9127 39.9027 1.67797 32.726 0.727687 24.0785C-0.501472 12.887 7.30443 2.70133 18.3993 1.02036C29.9629 -0.731975 40.7459 7.35885 42.3423 18.9851C43.7203 29.0182 37.5113 38.7323 27.7692 41.7391C27.1648 41.9257 26.8936 42.2299 26.6992 42.8057C25.923 45.1081 25.1363 47.4067 24.3463 49.7042C24.2722 49.9188 24.1986 50.1335 24.1251 50.3487C24.051 50.5644 23.9774 50.7807 23.9033 50.9965C23.8292 51.2122 23.7556 51.4285 23.6815 51.6443C23.6074 51.86 23.5338 52.0763 23.4597 52.2921C23.3856 52.5078 23.3115 52.7241 23.2374 52.9398C23.1633 53.1556 23.0886 53.3713 23.014 53.5871C22.9393 53.8028 22.8646 54.0186 22.7894 54.2338C22.7142 54.4495 22.639 54.6647 22.5632 54.8799C22.4875 55.0951 22.4117 55.3103 22.3349 55.5255C22.3025 55.6167 22.2701 55.7083 22.2371 55.7995C22.2064 55.8851 22.1823 55.9795 22.1383 56.0591C22.1092 56.1124 22.0434 56.1651 21.9797 56.1448C21.9671 56.1409 21.9566 56.1338 21.9467 56.1256ZM21.5564 38.1817C30.6239 38.1784 37.9851 30.8397 37.9999 21.7887C38.0147 12.7097 30.6337 5.32928 21.5449 5.33477C12.4785 5.34026 5.12005 12.6784 5.10632 21.7283C5.0926 30.8166 12.4593 38.185 21.5564 38.1817Z" fill="#831529"/>
<path d="M21.5563 38.1817C12.4598 38.1849 5.0925 30.816 5.10677 21.7283C5.1205 12.6778 12.479 5.33966 21.5453 5.33472C30.6342 5.32923 38.0146 12.7102 37.9998 21.7892C37.985 30.8396 30.6232 38.1784 21.5563 38.1817ZM21.6403 24.5132C21.8561 24.6895 22.0218 24.8207 22.1832 24.9574C22.965 25.6211 23.4953 25.6463 24.148 24.8673C26.0458 22.6017 27.953 20.3399 29.7388 17.9875C30.4459 17.0559 30.8994 15.9124 31.3577 14.8188C31.568 14.3171 31.635 13.6819 31.5378 13.1489C31.4659 12.7525 31.0827 12.2216 30.7319 12.1212C30.391 12.0235 29.7937 12.2848 29.5165 12.5818C24.3912 18.0809 19.2951 23.6074 14.2011 29.1356C13.9305 29.4293 13.6884 29.768 13.51 30.1249C13.2047 30.7342 13.3546 31.2876 13.8706 31.7295C14.3697 32.1572 14.9313 32.1802 15.4583 31.8349C15.8096 31.6044 16.1253 31.2925 16.3932 30.9648C17.9644 29.0434 19.5158 27.106 21.0754 25.1753C21.2516 24.9579 21.4383 24.7498 21.6403 24.5132ZM19.7963 20.9861C20.2745 20.4854 20.6785 20.0621 21.1062 19.6142C20.7641 19.181 20.488 18.7918 20.1701 18.4404C19.8924 18.133 19.8616 17.8915 20.079 17.5028C20.6587 16.4652 20.5456 15.4337 19.8452 14.4779C18.7576 12.9946 17.6564 11.5211 16.5689 10.0378C16.2658 9.62497 15.9008 9.34829 15.4336 9.71062C14.9927 10.0532 15.1827 10.4655 15.4649 10.8437C16.1802 11.8 16.8993 12.7541 17.5916 13.7275C17.8167 14.0442 18.358 14.4137 17.8502 14.8095C17.3424 15.2053 17.1162 14.6141 16.8741 14.2962C16.1511 13.3454 15.4467 12.3808 14.7369 11.4201C14.4482 11.0293 14.1138 10.6719 13.617 11.0529C13.1361 11.4218 13.3519 11.8478 13.6461 12.2419C14.418 13.2757 15.1865 14.3116 15.9546 15.3481C16.1577 15.6225 16.4168 15.9657 15.9935 16.1814C15.8228 16.2687 15.3732 16.076 15.2162 15.8784C14.413 14.8699 13.6587 13.8225 12.8979 12.781C12.6014 12.3753 12.2539 12.0613 11.7719 12.4242C11.2828 12.7926 11.5177 13.2142 11.8114 13.6084C12.8682 15.0253 13.9261 16.4416 14.9686 17.869C15.7333 18.9164 16.7154 19.3638 18.0171 19.1234C18.224 19.0849 18.5523 19.2359 18.6945 19.4072C19.0716 19.8639 19.3796 20.3783 19.7963 20.9861ZM23.862 26.9984C24.8447 28.4148 25.8241 29.9124 26.8968 31.3398C27.482 32.1188 28.2533 32.1929 28.9115 31.7202C29.5258 31.2788 29.7416 30.5328 29.2338 29.8185C28.1622 28.3116 26.9813 26.8826 25.8532 25.4317C25.1466 25.9878 24.5367 26.4676 23.862 26.9984Z" fill="#F6921E"/>
<path d="M21.6404 24.5133C21.4384 24.7499 21.2517 24.958 21.0766 25.1748C19.5169 27.1056 17.965 29.0429 16.3943 30.9643C16.1264 31.2921 15.8113 31.6039 15.4594 31.8345C14.9324 32.1798 14.3708 32.1573 13.8718 31.7291C13.3563 31.2871 13.2064 30.7338 13.5111 30.1244C13.6895 29.7681 13.9311 29.4294 14.2023 29.1351C19.2962 23.6069 24.3924 18.0804 29.5176 12.5813C29.7949 12.2843 30.3922 12.023 30.7331 12.1207C31.0839 12.2212 31.4665 12.752 31.539 13.1484C31.6361 13.6814 31.5692 14.3166 31.3589 14.8184C30.9 15.9119 30.4471 17.0555 29.74 17.9871C27.9542 20.3394 26.047 22.6018 24.1492 24.8668C23.4965 25.6458 22.9667 25.6206 22.1844 24.9569C22.0219 24.8207 21.8556 24.6895 21.6404 24.5133Z" fill="white"/>
<path d="M19.7964 20.986C19.3803 20.3777 19.0718 19.8633 18.693 19.4082C18.5508 19.2369 18.2225 19.0865 18.0156 19.1244C16.7139 19.3643 15.7324 18.9169 14.9671 17.87C13.9246 16.4426 12.8667 15.0263 11.8099 13.6094C11.5162 13.2152 11.2813 12.7936 11.7704 12.4252C12.2529 12.0618 12.6005 12.3764 12.8963 12.782C13.6572 13.8235 14.4115 14.8715 15.2147 15.8794C15.3717 16.0765 15.8213 16.2697 15.992 16.1824C16.4153 15.9667 16.1562 15.623 15.9531 15.3491C15.185 14.3126 14.4165 13.2767 13.6446 12.2429C13.3504 11.8488 13.1346 11.4222 13.6155 11.0539C14.1123 10.6729 14.4467 11.0303 14.7354 11.4211C15.4452 12.3818 16.1501 13.3464 16.8726 14.2972C17.1141 14.6151 17.3409 15.2063 17.8487 14.8105C18.3565 14.4142 17.8157 14.0447 17.5901 13.7285C16.8978 12.7551 16.1787 11.8016 15.4634 10.8447C15.1806 10.467 14.9912 10.0542 15.4321 9.71162C15.8993 9.34874 16.2649 9.62543 16.5674 10.0388C17.6549 11.5221 18.7561 12.9956 19.8436 14.4789C20.5441 15.4347 20.6578 16.4657 20.0775 17.5038C19.8607 17.8925 19.8914 18.1346 20.1686 18.4414C20.4865 18.7928 20.7626 19.182 21.1046 19.6152C20.6786 20.062 20.2746 20.4853 19.7964 20.986Z" fill="white"/>
<path d="M23.8621 26.9984C24.5368 26.4676 25.1467 25.9878 25.8532 25.4316C26.9813 26.8826 28.1622 28.3116 29.2338 29.8185C29.7416 30.5327 29.5259 31.2788 28.9115 31.7202C28.2539 32.1923 27.4826 32.1187 26.8968 31.3397C25.8241 29.9124 24.8447 28.4148 23.8621 26.9984Z" fill="white"/>
</svg>
