<svg width="105" height="82" viewBox="0 0 105 82" fill="none" xmlns="http://www.w3.org/2000/svg">
<path d="M82.9386 55.1986C82.8989 54.4595 82.9473 53.9743 82.8359 53.5297C82.216 51.0639 81.7619 48.5308 80.8657 46.167C79.4377 42.4001 77.2914 39.0296 74.28 36.2737C73.9295 35.9534 73.5444 35.6219 73.3277 35.2144C72.7657 34.1585 73.408 32.784 74.5865 32.7158C75.1727 32.6822 75.8893 33.0655 76.3754 33.4678C78.5148 35.2386 80.194 37.4436 81.6816 39.7522C84.3666 43.9196 85.9768 48.5023 86.4888 53.4563C86.6649 55.1614 86.696 55.183 88.3286 55.1925C91.4324 55.2107 94.5361 55.2055 97.6399 55.1882C98.0966 55.1856 98.5516 55.0596 99.0429 54.9853C98.6811 50.1047 97.8212 45.4987 96.1144 40.9859C88.3251 20.3871 65.9279 8.32766 44.4346 13.2704C35.8787 15.238 28.4814 19.2776 22.3196 25.5223C21.4079 26.4461 20.5066 26.8148 19.2374 26.782C16.2735 26.706 13.3061 26.7569 10.3405 26.7604C9.85787 26.7612 9.36661 26.7293 8.89608 26.8096C7.95502 26.9702 7.36191 27.6911 7.41284 28.5139C7.4586 29.2563 8.02238 29.8849 8.87624 30.0075C9.48577 30.0955 10.1143 30.0705 10.7342 30.0705C18.9421 30.0731 27.1492 30.0696 35.3572 30.0739C36.0453 30.0739 36.7438 30.0593 37.4198 30.1611C38.562 30.3338 39.2596 31.1531 39.1698 32.0899C39.0852 32.9705 38.391 33.6008 37.3308 33.7268C36.9898 33.7674 36.6419 33.7527 36.2974 33.7527C34.5085 33.7527 32.7196 33.7484 30.9307 33.7475C26.5207 33.7458 22.1089 33.8183 17.7015 33.7035C16.2165 33.6647 15.3998 34.1879 14.8464 35.4665C14.2455 36.8556 13.566 38.2111 12.9332 39.5864C12.391 40.7658 11.7771 41.7388 10.1834 41.4936C9.2449 41.3494 8.26584 41.4642 7.30492 41.4729C5.37532 41.4901 3.44484 41.4772 1.51783 41.554C0.635472 41.5894 0.0777421 42.2067 0.00694668 42.9734C-0.0707556 43.8065 0.510295 44.5931 1.40387 44.7407C1.94261 44.8296 2.50379 44.7942 3.05547 44.7951C9.73356 44.7977 16.4108 44.7864 23.0889 44.8106C23.8296 44.8132 24.6325 44.8659 25.2973 45.1508C26.4784 45.6584 26.6683 47.007 25.7143 47.8583C25.3379 48.1941 24.7612 48.4385 24.2578 48.4739C23.0957 48.5559 21.9225 48.4816 20.7543 48.4756C17.7196 48.46 14.6849 48.416 11.6511 48.4471C10.3025 48.4609 10.0953 48.6932 9.88465 49.9649C9.73787 50.8481 9.59369 51.7365 9.52635 52.6283C9.30015 55.6311 9.27079 55.1891 11.9222 55.1908C34.821 55.2029 57.7199 55.1977 80.6188 55.1977C81.3043 55.1986 81.9881 55.1986 82.9386 55.1986ZM54.2449 58.9101C39.9019 58.9101 25.5589 58.9101 11.2159 58.9101C10.1816 58.9101 9.14561 58.8842 8.11303 58.9257C5.35287 59.0371 3.53982 60.8674 3.54672 63.4989C3.55277 66.1045 5.40726 67.9486 8.16483 68.0039C10.5089 68.0505 12.8546 67.9866 15.1978 68.0307C16.0913 68.0479 16.719 67.7449 17.382 67.1345C21.8655 63.0059 27.6474 62.9645 32.0747 67.0551C32.8612 67.782 33.6244 68.0419 34.6449 68.0333C38.9885 67.9979 43.3329 68.0186 47.6773 68.0186C56.3662 68.0186 65.0542 68.0186 73.743 68.016C74.6323 68.016 75.4231 68.0125 76.1699 67.226C80.219 62.961 87.0724 63.0111 91.1708 67.2329C91.6232 67.6991 92.0687 68.0255 92.7645 68.0177C95.3848 67.9901 98.0077 68.073 100.625 67.9858C103.08 67.9038 104.896 65.95 104.925 63.5585C104.954 61.1402 103.216 59.1812 100.789 58.9507C100.036 58.8791 99.2725 58.9119 98.5145 58.911C83.7588 58.9101 69.0014 58.9101 54.2449 58.9101ZM24.6662 81.3368C28.541 81.3799 31.5774 78.46 31.6258 74.6449C31.6732 70.878 28.6368 67.7458 24.8743 67.6801C21.0885 67.6145 18.0347 70.5992 17.9622 74.4359C17.888 78.29 20.807 81.2936 24.6662 81.3368ZM90.4835 74.4584C90.4499 70.7045 87.3789 67.6707 83.6224 67.681C79.7667 67.6914 76.7587 70.8072 76.8304 74.7157C76.9003 78.5188 79.9255 81.4015 83.7778 81.3368C87.6025 81.272 90.5181 78.2813 90.4835 74.4584ZM54.7707 8.46148C55.7316 8.54609 56.348 8.61343 56.9662 8.65314C58.5038 8.75157 58.9476 8.47702 59.3111 7.01104C59.4734 6.35402 59.514 5.64434 59.4803 4.96487C59.3758 2.83151 57.9375 0.994287 55.9353 0.33986C53.8564 -0.339603 51.4692 0.317413 50.1025 1.94657C48.7229 3.59041 48.4422 5.90593 49.3548 7.76302C49.7028 8.47097 50.1776 8.77661 50.9874 8.69977C52.3576 8.5694 53.7355 8.52278 54.7707 8.46148ZM7.93345 15.4115C9.78794 15.4115 11.6424 15.4141 13.4961 15.4098C13.9761 15.4089 14.4648 15.4391 14.9353 15.364C15.8634 15.2164 16.4159 14.5223 16.3728 13.6529C16.3339 12.8672 15.8047 12.2931 14.9482 12.1584C14.6124 12.1057 14.2636 12.1221 13.92 12.1221C10.0737 12.1213 6.22832 12.1221 2.38205 12.1256C2.0393 12.1256 1.69309 12.123 1.35465 12.1696C0.567271 12.2775 0.152853 12.7981 0.0216223 13.5354C-0.106155 14.2512 0.418769 15.105 1.14572 15.2993C1.59984 15.421 2.09801 15.4046 2.57631 15.4072C4.3626 15.4176 6.14802 15.4115 7.93345 15.4115Z" fill="#831529"/>
<path d="M82.9387 55.1985C81.9881 55.1985 81.3043 55.1985 80.6214 55.1985C57.7225 55.1985 34.8237 55.2037 11.9248 55.1916C9.27344 55.1899 9.30277 55.6319 9.52897 52.6292C9.59631 51.7373 9.7405 50.8489 9.88727 49.9657C10.0979 48.694 10.3051 48.4617 11.6537 48.4479C14.6875 48.4177 17.7222 48.4609 20.757 48.4764C21.9259 48.4825 23.0984 48.5567 24.2605 48.4747C24.7638 48.4393 25.3405 48.195 25.717 47.8591C26.671 47.0078 26.481 45.6593 25.2999 45.1516C24.6352 44.8667 23.8323 44.814 23.0915 44.8114C16.4134 44.7873 9.73618 44.7985 3.0581 44.7959C2.50727 44.7959 1.94523 44.8313 1.4065 44.7415C0.51292 44.5939 -0.0681311 43.8074 0.0095712 42.9742C0.0803666 42.2076 0.638097 41.5903 1.52045 41.5549C3.44747 41.4772 5.37794 41.491 7.30755 41.4737C8.26847 41.4651 9.24753 41.3502 10.186 41.4944C11.7798 41.7396 12.3936 40.7666 12.9358 39.5873C13.5686 38.2119 14.2481 36.8565 14.849 35.4673C15.4024 34.1878 16.2192 33.6655 17.7041 33.7043C22.1107 33.82 26.5233 33.7466 30.9334 33.7484C32.7223 33.7492 34.5112 33.7535 36.3 33.7535C36.6445 33.7535 36.9924 33.7682 37.3335 33.7276C38.3937 33.6007 39.0878 32.9705 39.1724 32.0907C39.2622 31.1531 38.5646 30.3346 37.4224 30.162C36.7455 30.0592 36.0479 30.0748 35.3598 30.0748C27.1519 30.0705 18.9448 30.0739 10.7368 30.0713C10.1169 30.0713 9.4884 30.0955 8.87887 30.0083C8.02501 29.8857 7.46123 29.2572 7.41547 28.5147C7.36453 27.6919 7.95767 26.971 8.89873 26.8104C9.36926 26.7301 9.86138 26.7621 10.3431 26.7612C13.3088 26.7577 16.2761 26.7068 19.24 26.7828C20.5092 26.8156 21.4097 26.4469 22.3222 25.5231C28.4832 19.2785 35.8813 15.2388 44.4372 13.2712C65.9305 8.32848 88.3278 20.3879 96.117 40.9868C97.8239 45.4995 98.6838 50.1056 99.0455 54.9861C98.5551 55.0604 98.0993 55.1864 97.6425 55.189C94.5388 55.2072 91.435 55.2115 88.3312 55.1933C86.6986 55.1838 86.6675 55.1623 86.4914 53.4571C85.9794 48.5032 84.3693 43.9205 81.6842 39.753C80.1966 37.4444 78.5174 35.2394 76.378 33.4686C75.8919 33.0663 75.1754 32.683 74.5891 32.7166C73.4106 32.784 72.7692 34.1593 73.3304 35.2152C73.5471 35.6227 73.9321 35.9534 74.2826 36.2745C77.294 39.0304 79.4412 42.4018 80.8683 46.1678C81.7645 48.5317 82.2186 51.0648 82.8385 53.5305C82.9473 53.9743 82.8981 54.4595 82.9387 55.1985ZM65.0628 30.1974C66.0117 30.25 66.9191 29.3962 66.9424 28.4283C66.9657 27.4778 66.123 26.6222 65.1267 26.5833C64.1356 26.5454 63.2368 27.3681 63.2265 28.3239C63.2178 29.227 64.1166 30.1447 65.0628 30.1974ZM36.2258 46.4268C36.1929 45.6204 35.2579 44.8693 34.3428 44.9133C33.4423 44.9574 32.528 45.9519 32.5746 46.8369C32.6169 47.645 33.545 48.3927 34.4619 48.3564C35.3581 48.3219 36.262 47.3325 36.2258 46.4268Z" fill="#831529"/>
<path d="M54.2449 58.9102C69.0014 58.9102 83.7579 58.9093 98.5153 58.9119C99.2733 58.9119 100.037 58.88 100.789 58.9517C103.216 59.1822 104.954 61.1411 104.926 63.5594C104.896 65.9509 103.081 67.9038 100.625 67.9867C98.0077 68.0748 95.3856 67.9919 92.7653 68.0186C92.0695 68.0256 91.624 67.7001 91.1716 67.2339C87.0741 63.012 80.2199 62.962 76.1707 67.2269C75.4248 68.0135 74.6331 68.0169 73.7438 68.0169C65.055 68.0195 56.367 68.0186 47.6782 68.0195C43.3337 68.0195 38.9893 67.9988 34.6457 68.0342C33.6253 68.0428 32.8629 67.7829 32.0755 67.056C27.6482 62.9654 21.8663 63.0068 17.3829 67.1354C16.7198 67.7458 16.0922 68.0489 15.1986 68.0316C12.8546 67.9867 10.5088 68.0515 8.16567 68.0048C5.40724 67.9496 3.5536 66.1063 3.54756 63.4998C3.54152 60.8683 5.35371 59.038 8.11387 58.9266C9.14645 58.8852 10.1825 58.9111 11.2168 58.9111C25.5589 58.9102 39.9019 58.9102 54.2449 58.9102Z" fill="#831529"/>
<path d="M24.6662 81.3368C20.807 81.2945 17.888 78.29 17.9614 74.436C18.0339 70.5983 21.0876 67.6137 24.8734 67.6802C28.636 67.7458 31.6724 70.8781 31.6249 74.6449C31.5774 78.4601 28.541 81.3791 24.6662 81.3368Z" fill="#831529"/>
<path d="M90.4835 74.4583C90.518 78.2804 87.6025 81.2719 83.7778 81.3367C79.9264 81.4023 76.9003 78.5187 76.8304 74.7156C76.7587 70.8071 79.7666 67.6904 83.6224 67.6809C87.3789 67.6714 90.4498 70.7044 90.4835 74.4583Z" fill="#831529"/>
<path d="M54.7707 8.50895C53.903 8.50032 53.0345 8.52622 52.1685 8.58666C51.0367 8.66608 49.9531 8.97603 49.3557 7.76301C48.4431 5.90592 48.7229 3.5904 50.1034 1.94656C51.4709 0.318266 53.8581 -0.339614 55.9362 0.33985C57.9375 0.994276 59.3767 2.8315 59.4812 4.96486C59.514 5.64433 59.4743 6.35401 59.312 7.01102C58.9027 8.66263 58.0575 8.67385 56.5225 8.57457C55.9388 8.53658 55.3543 8.515 54.7707 8.50895Z" fill="#831529"/>
<path d="M7.93341 15.4116C6.14798 15.4116 4.36171 15.4185 2.57628 15.4072C2.09798 15.4047 1.59981 15.4202 1.14568 15.2993C0.418734 15.1051 -0.10619 14.2503 0.0215869 13.5355C0.152817 12.799 0.567235 12.2784 1.35462 12.1697C1.69306 12.123 2.03926 12.1265 2.38202 12.1256C6.22828 12.1222 10.0737 12.1213 13.9199 12.1222C14.2627 12.1222 14.6115 12.1058 14.9482 12.1584C15.8055 12.294 16.3339 12.8672 16.3727 13.6529C16.4159 14.5214 15.8634 15.2156 14.9353 15.3641C14.4647 15.4392 13.9769 15.409 13.496 15.4098C11.6424 15.4142 9.78791 15.4116 7.93341 15.4116Z" fill="#831529"/>
<path d="M65.0628 30.1974C64.1165 30.1447 63.2178 29.2278 63.2272 28.3247C63.2376 27.369 64.1364 26.5454 65.1275 26.5842C66.1238 26.6231 66.9656 27.4786 66.9431 28.4292C66.919 29.3953 66.0116 30.25 65.0628 30.1974Z" fill="white"/>
<path d="M36.2257 46.4267C36.262 47.3324 35.358 48.3226 34.4619 48.3572C33.545 48.3934 32.6169 47.6458 32.5746 46.8377C32.528 45.9527 33.4422 44.9581 34.3427 44.9141C35.2579 44.8683 36.1929 45.6203 36.2257 46.4267Z" fill="white"/>
</svg>
