<svg width="27" height="28" viewBox="0 0 27 28" fill="none" xmlns="http://www.w3.org/2000/svg">
<path d="M12.1525 23.7971C12.1555 23.082 12.442 22.3974 12.9492 21.8932L20.2542 14.6152C19.5604 14.2081 18.8094 13.9077 18.0262 13.724C19.1294 12.5795 19.8715 11.1357 20.1601 9.57241C20.4487 8.00916 20.271 6.39555 19.6492 4.93256C19.0273 3.46956 17.9888 2.22182 16.663 1.34474C15.3372 0.467661 13.7827 0 12.193 0C10.6034 0 9.04882 0.467661 7.72302 1.34474C6.39721 2.22182 5.35873 3.46956 4.7369 4.93256C4.11507 6.39555 3.93738 8.00916 4.22596 9.57241C4.51454 11.1357 5.25663 12.5795 6.35982 13.724C4.5591 14.1205 2.94746 15.1193 1.79114 16.5555C0.634813 17.9917 0.00297658 19.7793 0 21.6232C0 23.0556 0.569045 24.4294 1.58195 25.4423C2.59486 26.4552 3.96865 27.0243 5.40112 27.0243H12.1525V23.7971Z" fill="#831529"/>
<path d="M24.7236 13.9133L26.614 15.8037C26.8614 16.0561 27 16.3955 27 16.7489C27 17.1024 26.8614 17.4417 26.614 17.6941L17.6887 26.633C17.4299 26.8797 17.0875 27.0196 16.73 27.0245H14.8531C14.495 27.0245 14.1515 26.8823 13.8983 26.6291C13.6451 26.3758 13.5028 26.0324 13.5028 25.6743V23.7974C13.5078 23.4399 13.6476 23.0974 13.8944 22.8387L22.8332 13.9133C23.0856 13.6659 23.425 13.5273 23.7784 13.5273C24.1319 13.5273 24.4712 13.6659 24.7236 13.9133Z" fill="#F6921E"/>
</svg>
