<svg width="282" height="282" viewBox="0 0 282 282" fill="none" xmlns="http://www.w3.org/2000/svg">
<path d="M239.933 262.806L193.598 178.233L178.159 214.787L207.263 268.775H243.203L239.933 262.806ZM223.986 131.645C230.144 120 233.219 106.646 233.219 91.5909C233.219 89.342 233.153 87.1259 233.006 84.9424L203.755 154.182C212.472 148.18 219.211 140.665 223.986 131.645ZM178.69 46.982C187.089 51.1772 193.206 57.1058 197.033 64.7602C199.772 70.2474 201.538 76.3888 202.307 83.2006L219.063 43.3431C213.167 35.2226 205.317 28.5745 195.536 23.3978C182.722 16.6185 166.342 13.2251 146.372 13.2251H60.0253V36.4086L90.9693 110.007V40.677H145.375C159.187 40.677 170.292 42.7787 178.69 46.982ZM178.879 135.014C170.521 139.005 159.514 141 145.874 141H103.996L115.747 168.951H146.871C149.087 168.951 151.254 168.91 153.381 168.82L160.642 182.289L180.972 133.943C180.294 134.319 179.59 134.671 178.879 135.014ZM60.0253 268.775H90.9693V184.309L60.0253 111.054V268.775Z" fill="white"/>
<path d="M268.023 14.8603V267.139H241.568V74.6223V72.9868H239.933H237.365H236.28L235.858 73.9859L234.015 78.351C232.701 68.2907 229.826 58.9561 225.438 50.5298C224.116 47.9839 222.601 45.4996 220.926 43.1323L232.817 14.8603H268.023ZM49.191 14.8603L58.3897 36.7384V102.979L46.1415 73.9859L45.7192 72.9868H44.6347H42.0752H40.4396V74.6223V267.139H13.977V14.8603H49.191ZM269.658 13.2251H231.73L219.063 43.3431C220.895 45.8536 222.539 48.495 223.986 51.2837C229.22 61.3339 232.229 72.5536 233.006 84.9428L237.365 74.6227H239.933V268.775H269.658V13.2251ZM50.2775 13.2251H12.3418V268.775H42.0756V74.6223H44.6351L60.0252 111.054V36.4086L50.2775 13.2251Z" fill="#F27A7C"/>
<path d="M233.006 84.9424L203.755 154.182L193.598 178.233L178.159 214.787L155.351 268.775H126.648L90.9693 184.309L60.0253 111.054V36.4086L90.9693 110.007L103.996 141L115.747 168.951L139.462 225.352H142.537L160.642 182.288L180.972 133.942L202.307 83.2002L219.063 43.3427C220.895 45.8533 222.539 48.4947 223.986 51.2833C229.22 61.3339 232.229 72.5536 233.006 84.9424Z" fill="#F27A7C"/>
</svg>
