<svg width="92" height="92" viewBox="0 0 92 92" fill="none" xmlns="http://www.w3.org/2000/svg">
<path d="M45.8179 0.486104C21.5964 0.258177 0.0996263 19.8012 0.000340027 46.03C-0.0972195 71.9584 20.8125 91.6482 45.192 91.9409C70.2829 92.2422 91.3912 72.2209 91.5155 46.4349C91.6433 20.169 70.2009 0.306525 45.8179 0.486104Z" fill="#831529"/>
<path d="M58.5673 37.9074C58.5327 38.5575 58.4567 39.1316 58.4783 39.7015C58.6294 43.5969 58.7952 47.4924 58.9679 51.3879C59.0628 53.5299 59.1682 55.6727 59.2882 57.8139C59.504 61.6575 59.7267 65.5012 59.9624 69.344C60.0376 70.5588 60.2085 71.7692 60.256 72.9848C60.3 74.1279 59.7967 74.822 58.8565 75.1216C57.7635 75.4704 56.4779 75.1613 55.9685 74.2971C55.7156 73.868 55.5887 73.2827 55.6172 72.7811C55.8425 68.8416 56.1205 64.9055 56.3812 60.9686C56.3942 60.7743 56.4037 60.5792 56.4089 60.3841C56.5392 55.8022 56.667 51.2204 56.8008 46.6386C56.8647 44.4456 56.9441 42.2536 57.0063 40.0615C57.0253 39.3803 57.0089 38.6991 57.0089 37.9696C56.7922 37.8349 56.6074 37.67 56.3916 37.594C54.4361 36.9068 53.1264 35.4917 52.1637 33.7434C49.7826 29.4189 50.6045 22.8711 53.9431 19.2217C56.4589 16.4711 59.6456 16.4132 62.227 19.0922C63.649 20.5686 64.4795 22.36 65.0001 24.3294C65.7461 27.1517 65.6822 29.9265 64.5987 32.6435C63.5272 35.3286 61.7669 37.2875 58.5673 37.9074Z" fill="white"/>
<path d="M30.1099 37.5207C29.4339 37.2816 28.8813 37.1003 28.34 36.8914C27.3506 36.5106 26.716 35.8208 26.602 34.7399C26.4095 32.9009 26.1341 31.0628 26.0849 29.2196C26.0037 26.1494 26.0633 23.0742 26.0858 20.0015C26.0918 19.2072 26.103 18.3982 26.6806 17.641C26.7238 17.9864 26.8015 18.3317 26.8041 18.6779C26.8248 21.5555 26.8067 24.4331 26.8576 27.3107C26.874 28.2301 27.0173 29.1557 27.1891 30.0613C27.2806 30.5448 27.3281 31.1388 28.1051 31.4168C28.2778 31.0093 28.5204 30.6441 28.5817 30.2513C28.7397 29.242 28.8735 28.2232 28.915 27.2036C29.0315 24.3303 29.0928 21.4554 29.1861 18.5812C29.1964 18.2739 29.2715 17.9691 29.5642 17.6462C29.6203 17.8897 29.7205 18.1332 29.7239 18.3775C29.7516 20.0843 29.6955 21.7955 29.7913 23.4981C29.9113 25.634 30.147 27.7639 30.3404 29.8964C30.3939 30.4826 30.5372 31.0326 31.0881 31.4203C31.7382 30.8927 31.7995 30.2003 31.853 29.539C31.9868 27.8891 32.1189 26.2366 32.1698 24.5833C32.2286 22.6831 32.1932 20.7794 32.2113 18.8774C32.2147 18.4759 32.2734 18.0753 32.4409 17.673C32.8718 18.2609 32.9002 18.9136 32.9149 19.5655C32.9495 21.1748 32.9158 22.7875 33.0177 24.3925C33.1351 26.2366 33.3682 28.073 33.5512 29.9128C33.6047 30.4455 33.7092 30.9558 34.172 31.3754C34.8765 31.1069 34.955 30.4792 35.0422 29.9456C35.208 28.939 35.3436 27.9159 35.3591 26.898C35.379 25.5909 35.3815 24.2846 35.3798 22.9775C35.3781 21.6867 35.3729 20.396 35.3695 19.1053C35.3686 18.7574 35.3824 18.4103 35.41 18.0632C35.4195 17.9441 35.3928 17.7179 35.499 17.6454C35.7882 17.4485 35.8814 17.9121 35.9091 18.1055C35.9669 18.5122 35.9505 18.9361 35.9626 19.3453C36.0006 20.6516 36.0455 21.9578 36.0765 23.2641C36.1085 24.5695 36.1275 25.8758 36.1163 27.182C36.1154 27.2606 36.1145 27.3383 36.1137 27.4169C36.0886 29.5537 35.8011 31.687 35.6595 33.8238C35.5318 35.7431 34.5544 36.8793 32.6551 37.2212C32.4651 37.2557 32.2812 37.3325 32.0991 37.4033C32.0119 37.437 31.9359 37.5009 31.8107 37.5786C31.4317 38.7338 31.5966 39.9546 31.6285 41.1633C31.6501 41.9904 31.7494 42.8149 31.7822 43.642C31.9152 47.0514 31.992 50.4642 32.1707 53.871C32.4211 58.6385 32.7336 63.4025 33.0453 68.1657C33.1308 69.4763 33.306 70.7808 33.4476 72.0871C33.5504 73.0307 33.3293 73.8595 32.4798 74.3629C31.5793 74.8964 30.6037 74.9094 29.7058 74.3672C28.8735 73.8638 28.6387 73.0696 28.7354 72.0965C28.934 70.1108 29.0963 68.1199 29.2008 66.1273C29.3613 63.0606 29.4839 59.9923 29.5815 56.923C29.7714 50.9797 29.9346 45.0346 30.1056 39.0903C30.122 38.606 30.1099 38.1216 30.1099 37.5207Z" fill="white"/>
<path d="M43.0803 17.1118C44.6111 17.1256 45.7058 17.9337 45.8966 19.2495C46.1479 20.9814 46.3093 22.7297 46.4388 24.4763C46.7349 28.4589 47.0147 32.4433 47.2443 36.4303C47.3307 37.9352 47.2581 39.4486 47.2581 41.0398C46.7522 41.424 46.1064 41.8505 45.5392 42.3633C44.9383 42.9064 44.6672 43.5997 44.719 44.4561C44.9089 47.6169 45.0471 50.7802 45.2111 53.9427C45.3095 55.8395 45.4106 57.7363 45.5228 59.6323C45.743 63.3283 45.9666 67.0235 46.2031 70.7186C46.2532 71.4948 46.3922 72.2658 46.4449 73.0419C46.5105 74.0072 46.1384 74.7514 45.2232 75.1667C44.2321 75.6165 43.0907 75.4481 42.3517 74.7721C41.8742 74.3353 41.7447 73.7905 41.7819 73.1818C41.9398 70.6047 42.1013 68.0276 42.2645 65.4513C42.2826 65.1603 42.3387 64.8703 42.3499 64.5793C42.4795 61.2683 42.5865 57.9556 42.7316 54.6455C43.2547 42.751 42.9094 30.8496 43.013 18.9525C43.0165 18.3369 43.0562 17.7205 43.0803 17.1118Z" fill="white"/>
</svg>
