<svg width="49" height="49" viewBox="0 0 49 49" fill="none" xmlns="http://www.w3.org/2000/svg">
<path d="M45.9377 18.9348H44.375C43.8466 18.8971 43.34 18.7098 42.9142 18.3948C42.4884 18.0797 42.1612 17.6499 41.9707 17.1557V17.0595C41.7425 16.5602 41.6709 16.0036 41.7654 15.4628C41.8598 14.922 42.1158 14.4226 42.4997 14.0302L43.6056 12.9242C44.102 12.4166 44.3799 11.7349 44.3799 11.0249C44.3799 10.315 44.102 9.63322 43.6056 9.12559L39.6867 5.37502C39.1791 4.87868 38.4974 4.60077 37.7874 4.60077C37.0775 4.60077 36.3957 4.87868 35.8881 5.37502L34.7822 6.48096C34.3918 6.8599 33.8966 7.11291 33.3608 7.20721C32.825 7.30151 32.2732 7.23277 31.7769 7.00989C31.2826 6.81945 30.8528 6.49221 30.5378 6.06644C30.2227 5.64068 30.0354 5.134 29.9978 4.60567V2.89868C29.998 2.53998 29.9259 2.18492 29.7858 1.85471C29.6457 1.5245 29.4405 1.22592 29.1824 0.97681C28.9244 0.727701 28.6187 0.533178 28.2837 0.404864C27.9488 0.27655 27.5914 0.217079 27.2329 0.230005H21.8956C21.1878 0.230005 20.509 0.511168 20.0085 1.01164C19.5081 1.51212 19.2269 2.1909 19.2269 2.89868V4.46142C19.1893 4.98974 19.0019 5.49643 18.6869 5.92219C18.3718 6.34796 17.942 6.6752 17.4478 6.86563H17.3516C16.8691 7.10721 16.3256 7.19964 15.7904 7.13113C15.2551 7.06262 14.7524 6.83628 14.3463 6.48096L13.2404 5.37502C12.7328 4.87868 12.051 4.60077 11.3411 4.60077C10.6311 4.60077 9.94937 4.87868 9.44175 5.37502L5.66713 9.14963C5.17079 9.65726 4.89288 10.339 4.89288 11.049C4.89288 11.7589 5.17079 12.4407 5.66713 12.9483L6.77307 14.0542C7.15201 14.4446 7.40502 14.9398 7.49932 15.4756C7.59363 16.0114 7.52489 16.5632 7.302 17.0595C7.11156 17.5537 6.78432 17.9835 6.35856 18.2986C5.93279 18.6137 5.42611 18.801 4.89779 18.8386H3.19079C2.8321 18.8384 2.47704 18.9105 2.14682 19.0505C1.81661 19.1906 1.51803 19.3959 1.26892 19.6539C1.01982 19.912 0.825292 20.2177 0.696978 20.5526C0.568664 20.8876 0.509193 21.245 0.522119 21.6035V26.9408C0.522119 27.6486 0.803282 28.3274 1.30376 28.8278C1.80423 29.3283 2.48302 29.6095 3.19079 29.6095H4.75353C5.28186 29.6471 5.78854 29.8344 6.2143 30.1495C6.64007 30.4646 6.96731 30.8944 7.15775 31.3886C7.38595 31.8879 7.45756 32.4445 7.36314 32.9853C7.26872 33.5261 7.01271 34.0255 6.62882 34.4179L5.52288 35.5238C5.02654 36.0315 4.74863 36.7132 4.74863 37.4232C4.74863 38.1331 5.02654 38.8149 5.52288 39.3225L9.2975 43.0971C9.80512 43.5935 10.4869 43.8714 11.1968 43.8714C11.9068 43.8714 12.5885 43.5935 13.0962 43.0971L14.2021 41.9912C14.6123 41.5935 15.1375 41.3353 15.703 41.2533C16.2684 41.1713 16.8453 41.2697 17.3516 41.5344C17.8459 41.7248 18.2756 42.0521 18.5907 42.4778C18.9058 42.9036 19.0931 43.4103 19.1307 43.9386V45.5013C19.1104 45.872 19.1676 46.2428 19.2987 46.5901C19.4298 46.9373 19.632 47.2534 19.8922 47.5182C20.1524 47.7829 20.4649 47.9904 20.8099 48.1275C21.1549 48.2646 21.5246 48.3282 21.8956 48.3143H27.2329C27.9407 48.3143 28.6195 48.0331 29.12 47.5326C29.6204 47.0321 29.9016 46.3534 29.9016 45.6456V44.0828C29.9392 43.5545 30.1265 43.0478 30.4416 42.6221C30.7567 42.1963 31.1865 41.8691 31.6807 41.6786C32.18 41.4504 32.7366 41.3788 33.2774 41.4732C33.8182 41.5677 34.3176 41.8237 34.71 42.2076L35.816 43.3135C36.3236 43.8098 37.0053 44.0877 37.7153 44.0877C38.4252 44.0877 39.107 43.8098 39.6146 43.3135L43.3892 39.5389C43.8856 39.0313 44.1635 38.3495 44.1635 37.6396C44.1635 36.9296 43.8856 36.2479 43.3892 35.7402L42.2833 34.6343C41.8856 34.224 41.6275 33.6988 41.5455 33.1334C41.4634 32.568 41.5618 31.9911 41.8265 31.4848C42.0169 30.9905 42.3442 30.5607 42.7699 30.2457C43.1957 29.9306 43.7024 29.7433 44.2307 29.7057H45.7934C46.1641 29.726 46.5349 29.6688 46.8822 29.5376C47.2294 29.4065 47.5455 29.2044 47.8103 28.9442C48.075 28.684 48.2825 28.3714 48.4196 28.0265C48.5567 27.6815 48.6203 27.3117 48.6064 26.9408V21.6035C48.6064 20.8957 48.3252 20.2169 47.8247 19.7164C47.3243 19.2159 46.6455 18.9348 45.9377 18.9348Z" fill="#831529"/>
<path d="M24.5641 33.889C29.8754 33.889 34.181 29.5834 34.181 24.2721C34.181 18.9609 29.8754 14.6553 24.5641 14.6553C19.2529 14.6553 14.9473 18.9609 14.9473 24.2721C14.9473 29.5834 19.2529 33.889 24.5641 33.889Z" fill="#F6921E"/>
</svg>
