<svg width="56" height="40" viewBox="0 0 56 40" fill="none" xmlns="http://www.w3.org/2000/svg">
<path d="M47.6 39.1999C46.8574 39.1999 46.1452 38.9049 45.6201 38.3798C45.095 37.8547 44.8 37.1425 44.8 36.3999V13.9999C44.8 13.2573 45.095 12.5451 45.6201 12.02C46.1452 11.4949 46.8574 11.1999 47.6 11.1999C48.3426 11.1999 49.0548 11.4949 49.5799 12.02C50.105 12.5451 50.4 13.2573 50.4 13.9999V36.3999C50.4 37.1425 50.105 37.8547 49.5799 38.3798C49.0548 38.9049 48.3426 39.1999 47.6 39.1999ZM8.39998 39.1999C7.65737 39.1999 6.94518 38.9049 6.42008 38.3798C5.89498 37.8547 5.59998 37.1425 5.59998 36.3999V13.9999C5.59998 13.2573 5.89498 12.5451 6.42008 12.02C6.94518 11.4949 7.65737 11.1999 8.39998 11.1999C9.14258 11.1999 9.85477 11.4949 10.3799 12.02C10.905 12.5451 11.2 13.2573 11.2 13.9999V36.3999C11.2 37.1425 10.905 37.8547 10.3799 38.3798C9.85477 38.9049 9.14258 39.1999 8.39998 39.1999Z" fill="#F6921E"/>
<path d="M50.4 -6.10352e-05H5.59999C4.85738 -6.10352e-05 4.14519 0.294939 3.62009 0.820041C3.09499 1.34514 2.79999 2.05733 2.79999 2.79994V11.1999C2.79999 12.6852 3.38999 14.1095 4.44019 15.1597C5.49039 16.2099 6.91478 16.7999 8.39999 16.7999H47.6C49.0852 16.7999 50.5096 16.2099 51.5598 15.1597C52.61 14.1095 53.2 12.6852 53.2 11.1999V2.79994C53.2 2.05733 52.905 1.34514 52.3799 0.820041C51.8548 0.294939 51.1426 -6.10352e-05 50.4 -6.10352e-05Z" fill="#652D90"/>
<path d="M53.2 5.59994H2.8C2.05739 5.59994 1.3452 5.30494 0.820101 4.77984C0.294999 4.25474 0 3.54255 0 2.79994C0 2.05733 0.294999 1.34514 0.820101 0.820041C1.3452 0.294939 2.05739 -6.10352e-05 2.8 -6.10352e-05H53.2C53.9426 -6.10352e-05 54.6548 0.294939 55.1799 0.820041C55.705 1.34514 56 2.05733 56 2.79994C56 3.54255 55.705 4.25474 55.1799 4.77984C54.6548 5.30494 53.9426 5.59994 53.2 5.59994Z" fill="#F6921E"/>
</svg>
